<?xml version="1.0" encoding="UTF-8" standalone="no"?>
<!DOCTYPE svg PUBLIC "-//W3C//DTD SVG 1.1//EN" "http://www.w3.org/Graphics/SVG/1.1/DTD/svg11.dtd"><svg width="100%"
	height="100%" viewBox="0 0 3334 1000" version="1.1" xmlns="http://www.w3.org/2000/svg"
	xmlns:xlink="http://www.w3.org/1999/xlink" xml:space="preserve" xmlns:serif="http://www.serif.com/"
	style="fill-rule:evenodd;clip-rule:evenodd;stroke-linejoin:round;stroke-miterlimit:2;">
	<rect id="Artboard2" x="0" y="0" width="3333.33" height="1000" style="fill:none;" />
		<style>
		:root {
			--text: #28074f;
		}
		@media (prefers-color-scheme: dark) {
			:root {
				--text: #e5e3e8;
			}
		}
	</style>
	<g>
		<path
			d="M2688.13,615c-1.111,0 -2.014,-0.625 -2.708,-1.875c-0.695,-0.972 -1.042,-2.153 -1.042,-3.542c0,-0.972 0.347,-3.333 1.042,-7.083c1.527,-5.833 2.291,-9.861 2.291,-12.083c0,-0.695 0.139,-1.702 0.417,-3.021c0.278,-1.32 0.486,-2.535 0.625,-3.646c0.555,-0.972 1.076,-2.465 1.562,-4.479c0.487,-2.014 0.73,-3.785 0.73,-5.313c0,-0.694 0.243,-1.493 0.729,-2.396c0.486,-0.902 1.076,-1.631 1.771,-2.187c0,-0.833 0.208,-2.118 0.625,-3.854c0.416,-1.736 0.694,-2.952 0.833,-3.646c0.694,-3.75 3.403,-12.639 8.125,-26.667c4.722,-14.027 8.75,-25.347 12.083,-33.958c1.528,-3.472 2.639,-6.667 3.334,-9.583c0.694,-2.917 1.041,-5.209 1.041,-6.875c0,-0.556 0.174,-1.077 0.521,-1.563c0.347,-0.486 0.938,-1.146 1.771,-1.979c0.972,-0.972 1.875,-1.458 2.708,-1.458c0.695,0 1.459,0.277 2.292,0.833c0.833,0.556 1.667,1.181 2.5,1.875c0.833,1.25 1.493,2.431 1.979,3.542c0.486,1.111 0.729,2.291 0.729,3.541c0,0.417 -0.139,1.736 -0.416,3.959c0,2.916 -0.625,5.312 -1.875,7.187c-1.25,1.875 -1.737,2.743 -1.459,2.604c6.25,-2.916 11.806,-4.375 16.667,-4.375c5.833,0 10.382,1.875 13.646,5.625c3.264,3.75 4.896,8.611 4.896,14.584c0,2.5 -0.73,5.52 -2.188,9.062c-1.458,3.542 -2.882,5.938 -4.271,7.188c-0.833,0 -1.944,1.458 -3.333,4.375c-1.806,2.222 -4.792,4.548 -8.958,6.979c-4.167,2.43 -7.084,3.368 -8.75,2.812c-0.139,0 -0.348,0.07 -0.625,0.209c-0.278,0.139 -0.417,0.486 -0.417,1.041c0,0.556 -2.361,1.598 -7.083,3.125c-4.723,1.528 -8.612,2.292 -11.667,2.292c-1.667,0 -2.917,-0.104 -3.75,-0.313c-0.833,-0.208 -1.667,-0.659 -2.5,-1.354c-0.972,0.973 -1.458,1.875 -1.458,2.709c0,1.527 -0.695,4.305 -2.084,8.333c-1.389,4.028 -2.5,6.042 -3.333,6.042c-0.139,0.139 -0.313,0.416 -0.521,0.833c-0.208,0.417 -0.035,0.903 0.521,1.458c0,0.417 -0.07,1.389 -0.208,2.917c-0.139,1.528 -0.487,2.708 -1.042,3.542c0,1.25 -0.208,2.951 -0.625,5.104c-0.417,2.153 -0.903,3.785 -1.458,4.896c0,1.666 -0.243,3.298 -0.73,4.895c-0.486,1.598 -1.007,2.396 -1.562,2.396c-0.833,0.278 -1.25,2.292 -1.25,6.042c-0.139,3.472 -0.833,6.181 -2.083,8.125c-1.25,1.944 -2.709,2.917 -4.375,2.917l-1.667,0.208Zm26.875,-69.792c2.083,0 6.285,-1.076 12.604,-3.229c6.32,-2.153 10.729,-4.271 13.229,-6.354c2.917,-2.5 5.278,-5.174 7.084,-8.021c1.805,-2.847 2.708,-5.729 2.708,-8.646c0,-2.222 -0.625,-4.236 -1.875,-6.041c-0.972,-1.528 -2.639,-2.292 -5,-2.292c-2.778,0 -6.076,0.972 -9.896,2.917c-3.819,1.944 -7.326,4.514 -10.521,7.708c-2.5,2.5 -4.722,6.076 -6.666,10.729c-1.945,4.653 -2.917,8.299 -2.917,10.938c0,1.527 0.417,2.291 1.25,2.291Z"
			style="fill:var(--text);fill-rule:nonzero;" />
		<path
			d="M2813.34,560.833c-3.472,3.056 -7.639,4.584 -12.5,4.584c-3.472,0 -6.771,-0.834 -9.896,-2.5c-3.125,-1.667 -5.729,-3.959 -7.812,-6.875c-1.806,-2.223 -3.125,-4.723 -3.958,-7.5c-0.834,-2.778 -1.25,-6.181 -1.25,-10.209c0,-1.389 0.138,-4.166 0.416,-8.333c0.417,-5.139 2.118,-10.486 5.104,-16.042c2.987,-5.555 6.702,-10.52 11.146,-14.895c4.445,-4.375 8.82,-7.396 13.125,-9.063c2.222,-1.389 4.236,-2.083 6.042,-2.083c0.972,0 1.944,0.069 2.917,0.208c0.972,0.139 2.013,0.278 3.125,0.417c3.055,0.416 5.382,1.007 6.979,1.771c1.597,0.763 2.951,1.909 4.062,3.437c3.472,3.472 5.209,7.5 5.209,12.083c-0.556,3.334 -2.709,7.153 -6.459,11.459c-3.75,4.305 -8.264,7.777 -13.541,10.416c-2.5,0.834 -5.348,1.25 -8.542,1.25c-4.306,0 -7.778,-0.902 -10.417,-2.708c-1.25,-0.417 -2.222,-0.625 -2.916,-0.625c-1.25,0 -2.188,0.833 -2.813,2.5c-0.625,1.667 -1.215,4.722 -1.771,9.167c-0.139,0.972 -0.208,2.361 -0.208,4.166c0,7.084 2.361,10.973 7.083,11.667c3.195,0.694 5.486,1.042 6.875,1.042c1.667,0 3.542,-0.556 5.625,-1.667l3.959,-2.292c0.833,-0.416 1.597,-0.972 2.291,-1.666c0.695,-0.695 1.32,-1.32 1.875,-1.875c0.278,-0.278 0.695,-0.73 1.25,-1.355c0.556,-0.625 1.077,-1.041 1.563,-1.25c0.486,-0.208 0.937,-0.312 1.354,-0.312c0.555,0 1.18,0.312 1.875,0.937c0.694,0.625 1.25,1.077 1.667,1.355c1.25,0 1.527,0.868 0.833,2.604c-0.695,1.736 -2.188,3.75 -4.479,6.041c-2.292,2.292 -4.896,4.341 -7.813,6.146Zm-0.208,-44.166c2.361,-0.973 4.757,-2.709 7.187,-5.209c2.431,-2.5 3.646,-4.583 3.646,-6.25c0,-1.666 -0.625,-3.055 -1.875,-4.166c-1.25,-1.111 -2.986,-1.667 -5.208,-1.667c-1.667,0 -2.917,0.139 -3.75,0.417c-1.945,0.555 -4.236,2.048 -6.875,4.479c-2.639,2.43 -4.931,4.896 -6.875,7.396c-1.945,2.5 -2.708,3.958 -2.292,4.375c0.695,1.25 3.403,1.875 8.125,1.875c3.195,0 5.834,-0.417 7.917,-1.25Z"
			style="fill:var(--text);fill-rule:nonzero;" />
		<path
			d="M2862.09,562.083c-1.389,0.278 -2.639,0.417 -3.75,0.417c-1.805,0 -3.472,-0.174 -5,-0.521c-1.528,-0.347 -2.291,-0.798 -2.291,-1.354c0,-0.417 -0.07,-0.694 -0.209,-0.833c-0.139,-0.139 -0.416,-0.209 -0.833,-0.209c-0.139,-0.139 -0.556,-0.486 -1.25,-1.041c-0.695,-0.556 -1.528,-1.042 -2.5,-1.459c-1.25,-1.944 -1.875,-4.027 -1.875,-6.25c0,-2.361 0.625,-6.041 1.875,-11.041c0.417,-4.445 2.5,-10 6.25,-16.667c3.75,-6.667 8.16,-12.986 13.229,-18.958c5.07,-5.973 9.618,-10.139 13.646,-12.5c2.083,-2.084 4.722,-3.125 7.917,-3.125c2.5,0 4.861,0.625 7.083,1.875c1.944,1.111 3.993,2.986 6.146,5.625c2.153,2.639 3.854,5.347 5.104,8.125c0.555,2.083 0.833,4.097 0.833,6.041c0,2.084 -0.278,5.348 -0.833,9.792c-0.695,2.5 -1.285,5.556 -1.771,9.167c-0.486,3.611 -0.729,6.736 -0.729,9.375c-0.278,1.944 -0.139,3.507 0.417,4.687c0.555,1.181 1.319,1.771 2.291,1.771c0.695,0 1.459,-0.208 2.292,-0.625c1.389,-0.694 2.917,-1.042 4.583,-1.042c1.528,0 2.778,0.417 3.75,1.25c0.972,0.834 1.459,2.084 1.459,3.75c0,2.5 -1.702,5 -5.105,7.5c-3.402,2.5 -6.632,3.75 -9.687,3.75c-2.083,0 -3.993,-1.632 -5.729,-4.895c-1.736,-3.264 -3.438,-7.466 -5.104,-12.605l-1.25,-4.791l-8.959,8.541l-4.791,4.792c-2.223,2.222 -3.473,3.542 -3.75,3.958c-1.528,2.639 -5.348,5.139 -11.459,7.5Zm0.625,-12.291c3.334,-1.945 7.431,-5.348 12.292,-10.209c4.861,-4.861 8.889,-9.514 12.083,-13.958c4.306,-5.694 7.014,-11.319 8.125,-16.875c-0.555,-1.667 -1.458,-3.333 -2.708,-5c-1.25,-1.667 -2.361,-2.569 -3.333,-2.708c-2.778,0 -5.695,1.597 -8.75,4.791c-3.056,3.195 -6.667,7.639 -10.834,13.334l-6.875,10.208c-0.833,1.111 -2.291,4.063 -4.375,8.854c-2.083,4.792 -3.125,7.674 -3.125,8.646c0,3.056 0.903,4.583 2.709,4.583c1.388,0 2.986,-0.555 4.791,-1.666Z"
			style="fill:var(--text);fill-rule:nonzero;" />
		<path
			d="M2949.8,563.333c-4.306,0 -7.153,-0.243 -8.542,-0.729c-1.389,-0.486 -2.986,-1.562 -4.792,-3.229c-1.389,-2.778 -2.778,-4.861 -4.166,-6.25c-0.556,-1.528 -0.834,-3.819 -0.834,-6.875c0,-3.472 0.417,-7.257 1.25,-11.354c0.834,-4.097 1.945,-7.952 3.334,-11.563c0.555,-1.111 1.007,-2.152 1.354,-3.125c0.347,-0.972 0.59,-1.597 0.729,-1.875c0,-0.972 1.771,-3.993 5.312,-9.062c3.542,-5.07 6.355,-8.577 8.438,-10.521c0.972,-1.111 2.465,-2.292 4.479,-3.542c2.014,-1.25 3.785,-2.152 5.313,-2.708c3.888,-1.389 7.291,-2.083 10.208,-2.083c4.028,0 7.43,1.875 10.208,5.625c3.056,3.055 4.584,6.458 4.584,10.208c0,1.389 -0.209,2.917 -0.625,4.583c-1.389,5.556 -3.403,8.334 -6.042,8.334c-1.806,0 -3.542,-1.042 -5.208,-3.125c-0.556,-1.389 -0.834,-2.292 -0.834,-2.709c0,-0.416 0.278,-1.597 0.834,-3.541c0.277,-1.389 0.416,-2.361 0.416,-2.917c0,-1.667 -0.278,-3.125 -0.833,-4.375c-0.556,-1.25 -1.32,-1.875 -2.292,-1.875c-3.194,0 -7.361,2.778 -12.5,8.333c-1.805,1.945 -4.132,5 -6.979,9.167c-2.847,4.167 -4.965,7.917 -6.354,11.25c-1.389,4.167 -2.5,7.569 -3.333,10.208c-0.834,2.639 -1.389,4.306 -1.667,5c0,0.278 0.174,0.764 0.521,1.459c0.347,0.694 0.521,1.25 0.521,1.666c0,0.973 0.208,1.736 0.625,2.292c0.416,0.556 1.18,1.111 2.291,1.667c1.528,1.111 3.334,1.666 5.417,1.666c2.222,0 4.792,-0.694 7.708,-2.083c1.806,-0.833 4.375,-2.639 7.709,-5.417l5,-3.75c0.972,-0.694 1.84,-1.284 2.604,-1.77c0.764,-0.487 1.354,-0.834 1.771,-1.042c0.416,-0.208 0.625,-0.174 0.625,0.104c0,0.556 0.208,0.833 0.625,0.833c0.416,0 0.902,-0.277 1.458,-0.833c1.25,-1.667 2.847,-2.5 4.792,-2.5c1.111,0 1.666,0.208 1.666,0.625l-0.208,1.042c0,0.694 0.347,1.389 1.042,2.083c0,0.556 -0.174,1.285 -0.521,2.188c-0.347,0.902 -0.799,1.631 -1.354,2.187c-0.834,1.25 -2.257,2.743 -4.271,4.479c-2.014,1.736 -3.368,2.882 -4.063,3.438l-0.208,0c-0.695,0 -1.667,0.625 -2.917,1.875c-2.083,1.944 -3.889,2.916 -5.416,2.916c-0.556,0.278 -1.181,0.591 -1.875,0.938c-0.695,0.347 -1.042,0.729 -1.042,1.146c-1.389,1.389 -3.056,2.326 -5,2.812c-1.945,0.486 -4.931,0.729 -8.958,0.729Z"
			style="fill:var(--text);fill-rule:nonzero;" />
		<path
			d="M3015.63,563.125c-4.445,-1.806 -7.57,-4.132 -9.375,-6.979c-1.806,-2.847 -2.708,-6.84 -2.708,-11.979c0,-2.5 0.208,-5.417 0.625,-8.75l0.416,-7.5c0,-1.25 -0.139,-2.223 -0.416,-2.917c-0.278,-0.694 -0.903,-1.458 -1.875,-2.292c-0.278,-0.277 -0.973,-0.972 -2.084,-2.083c-1.111,-1.111 -1.597,-2.014 -1.458,-2.708l-0.208,-1.042c0,-0.972 0.173,-1.875 0.52,-2.708c0.348,-0.834 0.73,-1.25 1.146,-1.25c0.417,0 0.972,-0.104 1.667,-0.313c0.694,-0.208 1.319,-0.243 1.875,-0.104c1.944,0 2.917,0.417 2.917,1.25c0.555,1.111 1.493,1.215 2.812,0.313c1.32,-0.903 2.604,-2.674 3.854,-5.313c1.945,-3.056 4.827,-6.285 8.646,-9.687c3.82,-3.403 6.979,-5.799 9.479,-7.188c0.972,-0.556 2.57,-1.076 4.792,-1.562c2.222,-0.487 4.167,-0.73 5.833,-0.73c2.5,0 4.688,0.556 6.563,1.667c1.875,1.111 3.784,2.708 5.729,4.792c2.639,1.944 3.958,5 3.958,9.166c0,2.917 -0.694,5.903 -2.083,8.959c-0.556,2.083 -2.743,4.722 -6.563,7.916c-3.819,3.195 -7.326,5.417 -10.52,6.667c-3.889,0.972 -8.334,1.458 -13.334,1.458c-3.333,0 -5.486,-0.277 -6.458,-0.833c-1.667,-0.972 -2.847,2.778 -3.542,11.25c-0.139,0.972 -0.208,2.292 -0.208,3.958c0,2.361 0.347,4.236 1.042,5.625c0.138,0.139 0.625,0.66 1.458,1.563c0.833,0.903 1.875,1.667 3.125,2.292c1.25,0.625 2.569,0.937 3.958,0.937c1.25,0 2.222,-0.139 2.917,-0.417c1.528,-0.416 2.986,-1.215 4.375,-2.395c1.389,-1.181 3.333,-3.021 5.833,-5.521c2.222,-2.223 3.82,-3.75 4.792,-4.584c0.694,-1.25 2.083,-1.875 4.167,-1.875c0.555,0 1.527,0.139 2.916,0.417c1.25,0.972 1.875,2.014 1.875,3.125c0,1.111 -0.694,3.194 -2.083,6.25c-0.695,1.389 -2.396,3.299 -5.104,5.729c-2.709,2.431 -5.104,4.34 -7.188,5.729c-4.305,2.361 -8.611,3.542 -12.916,3.542c-2.639,0 -5.695,-0.625 -9.167,-1.875Zm12.292,-42.292c1.388,-0.277 3.402,-0.625 6.041,-1.041c2.639,-0.417 4.827,-1.355 6.563,-2.813c1.736,-1.458 3.784,-3.993 6.146,-7.604c0.416,-1.111 0.625,-2.222 0.625,-3.333c0,-2.084 -0.417,-3.542 -1.25,-4.375c-0.973,-0.973 -2.084,-1.459 -3.334,-1.459c-1.944,0 -3.958,0.834 -6.041,2.5c-1.389,0.417 -3.438,1.945 -6.146,4.584c-2.709,2.639 -5.035,5.243 -6.979,7.812c-1.945,2.57 -2.57,4.063 -1.875,4.479c-0.278,0.417 0.416,0.729 2.083,0.938c1.667,0.208 3.055,0.312 4.167,0.312Z"
			style="fill:var(--text);fill-rule:nonzero;" />
	</g>
	<path d="M2514.3,484.87c12.914,7.599 65.826,34.89 57.845,54.426c-9.65,23.619 -39.064,40.543 -56.513,58.653"
		style="fill:none;stroke:var(--text);stroke-width:10.42px;stroke-linecap:round;stroke-miterlimit:1.5;" />
	<path
		d="M625.063,575.829c6.654,12.117 2.884,-64.869 -38.49,-57.596c-27.745,4.878 -59.899,67.959 -35.388,91.101c50.836,47.994 173.662,-26.59 145.549,-79.187c-19.498,-36.479 -81.468,-22.881 -109.317,-10.793c-15.101,6.554 -45.367,27.488 -32.234,37.415c13.235,10.005 35.038,25.49 52.13,26.183c9.248,0.375 18.563,0.73 27.766,-0.255c70.037,-7.5 61.149,-36.078 29.678,-99.497c-5.886,-11.861 -29.481,-25.125 -19.97,-34.338c38.176,-36.982 102.538,-59.324 87.335,-73.585c-30.539,-28.645 -95.367,-7.623 -134.144,-11.204c-11.359,-1.049 -29.106,-0.997 -29.106,-15.418l0,-5.602c-13.023,-3.238 -12.352,23.892 -17.116,36.437c-31.114,81.945 -47.191,143.258 -23.411,229.844c10.597,38.589 139.153,37.566 156.398,32.934c16.426,-4.412 -22.221,-26.794 -37.101,-35.033c-51.566,-28.549 -120.445,-57.472 -178.653,-57.472c-3.236,0 6.472,0 9.708,0c10.881,0 18.558,0.183 29.677,-0.695c29.37,-2.319 96.805,-3.871 108.92,-33.602c8.656,-21.242 -131.998,-123.473 -157.441,-106.545c-16.974,11.294 -12.488,39.504 -12.547,56.053c-0.291,81.921 41.933,142.746 127.846,140.84c6.979,-0.155 32.616,0.62 38.985,-5.319c30.869,-28.78 11.054,-86.395 3.66,-116.14c-19.418,-78.117 -46.374,-104.324 -124.233,-117.16c-44.977,-7.416 -73.549,-16.755 -108.567,12.464c-70.766,59.048 86.783,251.615 169.615,177.82c28.114,-25.047 -63.633,-84.059 -71.347,-89.696c-54.671,-39.956 -58.394,-44.644 -121.01,-21.73c-28.979,10.604 -38.64,1.663 -63.924,28.042c-10.898,11.369 26.362,37.518 31.391,41.329c31.852,24.138 103.746,18.116 122.152,60.266c36.822,84.326 -105.816,128.992 -15.417,147.864c21.527,4.494 20.86,3.308 38.814,9.105c23.192,7.489 54.021,13.902 77.69,6.07c22.031,-7.291 36.069,-22.461 53.069,-38.269c23.573,-21.921 37.305,-35.401 48.464,-64.504c40.692,-106.129 -145.349,-159.885 -171.75,-65.035c-27.078,97.284 141.895,182.722 214.452,130.137c34.847,-25.255 1.97,-54.716 -30.726,-40.579c-0.874,0.378 -3.863,3.322 -3.411,4.908c20.781,72.853 158.948,88.32 205.535,33.492c31.391,-36.944 48.688,-116.541 21.389,-158.764c-20.606,-31.871 -63.117,-84.287 -77.394,-66.73c-12.982,15.965 88.607,21.916 89.62,18.921c5.024,-14.856 8.033,-35.686 4.553,-51.161c-8.605,-38.254 -42.626,-74.873 -75.9,-91.795c-6.141,-3.124 -39.118,-15.86 -43.953,-8.411c-4.257,6.558 5.666,12.183 5.71,11.914c3.673,-22.531 -40.578,-44.913 -60.978,-44.913c-40.292,0 -66.998,46.789 -81.101,77.63c-24.655,53.916 -45.26,146.122 23.353,177.511c25.652,11.735 50.613,3.184 75.344,11.205c3.337,1.082 2.053,7.68 0,10.525c-8.04,11.139 -58.415,57.306 -63.923,81.98c-2.789,12.491 -9.814,45.424 -5.711,63.059c2.302,9.89 19.82,35.331 15.989,25.928c-31.216,-76.617 -97.258,-151.907 -179.079,-173.169c-8.766,-2.278 -89.746,-12.572 -91.477,-8.323c-9.043,22.201 31.258,149.236 67.921,161.876c170.944,58.94 190.94,-92.958 213.469,-230.538c4.143,-25.3 8.89,-75.788 -6.852,-99.512c-22.613,-34.077 -26.363,24.77 -23.339,34.391c16.137,51.332 112.441,64.049 127.516,5.249c26.601,-103.754 -163.584,-222.521 -191.658,-98.542c-15.197,67.113 130.141,78.414 148.564,30.876c5.709,-14.731 -40.214,-20.192 -108.105,-20.192c-75.062,0 -219.799,30.503 -223.519,128.099c-3.532,92.685 46.927,120.576 134.322,125.368c3.209,0.176 91.911,13.726 99.133,-7.629c5.061,-14.965 -8.084,-35.415 -18.844,-44.154c-17.177,-13.952 -50.251,-39.946 -75.914,-30.125c-47.007,17.989 -36.235,69.358 -1.713,92.49c11.104,7.44 25.554,13.436 38.242,17.516c60.578,19.48 151.702,-1.34 200.61,-35.411c17.208,-11.988 64.309,-58.667 44.803,-80.176c-6.352,-7.004 -17.944,-9.606 -26.233,-11.951c-2.422,-0.685 -9.941,-1.389 -7.423,-1.389c43.364,0 94.979,-6.916 137.554,-1.404c29.199,3.779 58.681,21.482 89.033,24.523c39.548,3.961 103.819,13.676 112.445,-39.247c0.753,-4.619 13.84,5.695 34.245,21.73c14.186,11.148 27.915,20.243 45.443,25.275c44.163,12.68 106.263,-48.958 149.283,-34.889c40.761,13.33 68.044,43.578 109.589,56.068c46.498,13.978 97.628,-17.532 144.407,-17.532c144.915,0 732.041,4.911 876.282,-4.892"
		style="fill:none;stroke:var(--text);stroke-width:10.42px;stroke-linecap:round;stroke-miterlimit:1.5;" />
	<path
		d="M703.284,486.009c-5.489,-15.025 -10.647,-24.005 -23.748,-35.857c-66.838,-60.468 -101.001,56.917 -83.76,69.609c38.552,28.383 85.747,42.434 121.65,4.935c12.219,-12.763 54.363,-58.341 30.635,-78.088c-22.24,-18.509 -76.388,-13.074 -102.266,-7.089c-2.147,0.497 -36.392,8.791 -31.835,17.903c1.788,3.573 49.923,0.923 72.769,0.612c9.707,-0.133 35.494,3.913 28.991,-2.461c-22.544,-22.098 -153.307,-77.454 -178.494,-64.813c-11.12,5.581 -6.147,48.225 -6.256,56.168c-0.439,31.957 -0.58,52.548 18.184,80.242c47.737,70.454 195.974,0.812 123.1,-69.29c-71.836,-69.104 -234.963,-72.575 -291.94,10.036c-42.023,60.928 73.974,147.232 136.437,152.45c19.599,1.638 67.61,4.985 80.162,-14.816c10.842,-17.102 -41.452,-14.089 -46.443,-14.089c-63.424,0 -195.903,13.889 -112.728,83.211c44.998,37.504 210.573,40.014 267.756,20.377c23.563,-8.092 43.73,-24.446 67.65,-33.331c9.505,-3.531 82.196,-16.637 93.797,-25.923c12.177,-9.747 -15.452,-48.833 -25.01,-69.136c-22.221,-47.203 -19.681,-95.725 -15.356,-146.279c0.849,-9.921 14.158,-48.674 27.285,-51.846c6.317,-1.526 89.729,134.514 113.134,107.402c30.383,-35.195 -29.082,-129.787 -77.822,-39.566c-22.134,40.972 -18.778,96.439 5.053,135.848c10.713,17.716 52.304,49.246 71.716,19.77c25.143,-38.18 -13.26,-69.495 -46.138,-88.281c-66.515,-38.005 -132.536,-40.398 -204.69,-21.636c-5.705,1.483 -74.581,14.615 -75.563,36.453c-1.18,26.248 36.902,19.059 56.947,19.059c56.527,0 100.785,-53.733 68.27,-96.864c-31.355,-41.592 -92.891,-71.636 -149.673,-74.033c-29.088,-1.229 -52.076,-1.73 -74.46,16.053c-7.277,5.783 -26.542,15.844 -18.199,20.363c18.187,9.853 43.227,-33.374 33.54,-43.825c-15.907,-17.162 -51.514,-12.731 -72.908,-12.731c-23.712,0 -50.071,16.102 -68.648,28.785c-9.978,6.812 -19.002,14.269 -28.991,20.988c-2.579,1.735 -7.315,7.743 -7.962,4.935c-1.686,-7.314 30.232,-45.506 23.318,-39.503c-14.587,12.668 -32.808,31.141 -40.934,48.148c-59.354,124.225 14.571,150.479 148.366,158.622c13.6,0.828 85.124,-3.516 97.793,14.803c26.786,38.733 -65.132,68.465 -55.153,103.705c6.328,22.343 51.842,5.753 77.888,5.546c10.242,-0.082 37.431,-5.588 30.697,1.237c-11.429,11.581 -253.318,106.594 -69.925,104.928c6.93,-0.063 21.838,-0.147 28.99,-1.849c35.406,-8.424 69.757,-21.542 102.897,-35.18c32.646,-13.434 64.29,-28.589 95.503,-44.451c25.878,-13.149 54.548,-26.626 75.613,-45.673c5.86,-5.299 -6.383,-18.941 1.137,-22.212c70.221,-30.546 130.249,-117.91 65.944,-179.61c-56.308,-54.028 -95.914,-74.24 -178.494,-75.92c-20.081,-0.408 -43.888,-2.732 -62.528,5.51c-23.873,10.556 -50.058,52.848 -55.725,76.581c-1.937,8.11 -9.484,38.832 4.55,40.74c0.95,0.129 11.439,0.651 11.928,-0.626c27.681,-72.134 -141.531,-99.38 -194.418,-92.585c-35.976,4.623 -90.01,23.752 -103.466,58.031c-5.979,15.231 -12.915,35.386 -1.706,49.983c4.993,6.502 22.701,24.153 16.493,18.528c-109.85,-99.55 -37.066,-118.121 31.266,-220.35c35.773,-53.518 -1.486,-75.757 61.394,-105.553c12.547,-5.945 25.43,-11.394 38.659,-16.04c9.199,-3.231 26.251,-5.622 36.385,-6.172c142.127,-7.703 168.103,53.532 245.021,139.496c25.932,28.981 50.455,43.579 46.599,85.459c-3.855,41.877 -125.51,118.46 -163.145,148.457c-15.593,12.429 -65.651,41.116 -26.147,53.083c79.766,24.163 177.501,-0.384 125.062,-86.414c-35.166,-57.693 -95.507,-86.467 -164.859,-99.98c-94.387,-18.39 -223.302,144.006 -176.521,207.458c24.054,32.625 105.991,2.417 115.696,-28.473c20.983,-66.784 -47.048,-61.969 -106.821,-60.412c-62.784,1.636 -174.257,36.991 -174.257,108.729c0,75.541 191.349,67.648 242.418,58.46c17.912,-3.223 74.637,-40.848 44.916,-55.543"
		style="fill:none;stroke:var(--text);stroke-width:10.42px;stroke-linecap:round;stroke-miterlimit:1.5;" />
	<path
		d="M617.507,531.554c13.303,2.491 11.288,-75.67 7.75,-87.727c-27.264,-92.902 -100.751,-152.236 -188.408,-184.713c-16.008,-5.931 -69.958,-11.611 -82.149,6.024c-40.532,58.627 -12.541,101.31 30.349,148.002c57.725,62.844 116.797,107.712 198.68,133.746c40.921,13.01 128.157,-1.598 135.726,-55.918c2.68,-19.232 -4.663,-27.667 -24.108,-31.242c-0.438,-0.081 -10.72,-1.248 -10.72,-2.197"
		style="fill:none;stroke:var(--text);stroke-width:10.42px;stroke-linecap:round;stroke-miterlimit:1.5;" />
	<path
		d="M629.856,537.723c-11.149,-13.483 6.319,-32.52 29.323,-85.119c29.106,-66.55 79.257,-126.375 137.309,-169.654c36.056,-26.881 78.386,-41.711 116.734,-10.135c16.868,13.89 23.093,47.559 27.681,66.867c6.284,26.443 2.156,43.428 -2.234,73.222c-11.113,75.427 -48.434,107.413 -108.132,152.297c-32.117,24.147 -66.598,52.257 -108.402,57.871c-13.444,1.805 -28.148,7.496 -40.635,2.197c-4.114,-1.746 -9.567,-16.997 -5.794,-16.997"
		style="fill:none;stroke:var(--text);stroke-width:10.42px;stroke-linecap:round;stroke-miterlimit:1.5;" />
	<path
		d="M602.03,553.175c-7.102,-6.43 -9.349,-41.607 -25.894,-35.346c-8.336,3.154 -4.752,23.582 -4.901,30.699c-0.593,28.215 20.06,58.591 42.409,75.087c49.754,36.726 180.707,48.793 230.816,10.962c38.644,-29.176 -6.403,-97.678 -40.175,-109.243c-11.745,-4.021 -34.634,-14.152 -45.488,-0.81c-32.876,40.411 0.612,131.134 43.286,150.181c48.704,21.74 109.452,-9.28 141.054,-45.609c80.773,-92.857 -14.024,-199.093 -112.583,-215.011c-37.029,-5.981 -107.079,-4.759 -107.079,47.283"
		style="fill:none;stroke:var(--text);stroke-width:10.42px;stroke-linecap:round;stroke-miterlimit:1.5;" />
	<path
		d="M734.943,451.203c-2.076,44.03 31.5,79.405 64.428,102.805c82.138,58.372 182.943,46.186 237.963,-43.302c21.362,-34.743 2.536,-122.545 -54.022,-106.342c-38.869,11.135 -42.296,89.798 -53.129,103.046c-1.659,2.03 -40.644,-21.368 -50.002,-19.725c-32.806,5.759 -36.182,35.248 -54.469,59.201"
		style="fill:none;stroke:var(--text);stroke-width:10.42px;stroke-linecap:round;stroke-miterlimit:1.5;" />
</svg>