<?xml version="1.0" encoding="UTF-8" standalone="no"?>
<!DOCTYPE svg PUBLIC "-//W3C//DTD SVG 1.1//EN" "http://www.w3.org/Graphics/SVG/1.1/DTD/svg11.dtd"><svg width="100%"
	height="100%" viewBox="0 0 3334 2500" version="1.1" xmlns="http://www.w3.org/2000/svg"
	xmlns:xlink="http://www.w3.org/1999/xlink" xml:space="preserve" xmlns:serif="http://www.serif.com/"
	style="fill-rule:evenodd;clip-rule:evenodd;stroke-linejoin:round;stroke-miterlimit:2;">
	<style>
			:root {
				--text: #28074f;
			}
			@media (prefers-color-scheme: dark) {
				:root {
					--text: #e5e3e8;
				}
			}
		</style>
	<g>
		<path d="M2217.08,356.378c-361.446,-16.586 -797.993,-13.881 -1275.02,0c-25.688,768.942 -24.594,1375.1 0,1838.42"
			style="fill:none;stroke:var(--text);stroke-width:12.5px;stroke-linecap:round;stroke-miterlimit:1.5;" />
		<path
			d="M970.487,2194.44c334.936,3.851 595.55,13.45 928.135,11.165c91.306,-0.627 244.015,-9.655 335.122,-10.805c-25.319,-578.273 -19.4,-1180.38 0,-1792.78"
			style="fill:none;stroke:var(--text);stroke-width:12.5px;stroke-linecap:round;stroke-miterlimit:1.5;" />
	</g>
	<path
		d="M1090.45,699.42c-18.196,0 -30.712,22.421 -32.677,39.163c-1.523,12.97 0.773,26.219 15.756,28.775c5.63,0.96 11.961,-1.542 17.39,-2.455c14.752,-2.481 31.708,-9.729 38.845,-24.067c5.331,-10.711 -2.168,-37.526 -15.02,-37.526"
		style="fill:none;stroke:var(--text);stroke-width:12.5px;stroke-linecap:round;stroke-miterlimit:1.5;" />
	<path
		d="M1126.32,1306.57c-4.709,-17.576 -29.606,-23.863 -46.285,-21.428c-12.923,1.887 -19.132,33.821 -16.845,38.829c6.214,13.608 17.604,28.11 33.301,31.292c11.725,2.378 35.687,-11.806 32.36,-24.22"
		style="fill:none;stroke:var(--text);stroke-width:12.5px;stroke-linecap:round;stroke-miterlimit:1.5;" />
	<path
		d="M1403.55,766.051c-4.698,0 -8.774,-0.967 -12.228,-2.901c-3.454,-1.935 -5.734,-4.56 -6.839,-7.876c-0.968,-2.487 -1.451,-3.869 -1.451,-4.145c0,-0.829 0.483,-1.451 1.451,-1.865c0.967,0 2.107,0.414 3.419,1.243c1.313,0.829 2.384,1.382 3.213,1.658c2.072,1.935 4.905,2.902 8.497,2.902c2.763,0 5.285,-0.553 7.565,-1.658c2.279,-1.106 3.557,-2.418 3.834,-3.938c0,-0.691 -0.691,-3.109 -2.073,-7.254c-3.454,-4.974 -6.114,-10.051 -7.979,-15.233c-1.865,-5.181 -2.798,-9.568 -2.798,-13.16c0,-2.625 0.76,-5.319 2.28,-8.083c1.52,-2.763 3.592,-5.112 6.217,-7.046c3.455,-3.593 7.634,-6.84 12.539,-9.741c4.905,-2.902 9.361,-4.905 13.368,-6.01c1.658,0 3.696,0.207 6.114,0.621c2.418,0.415 4.11,0.899 5.077,1.451c1.52,0.553 2.971,2.073 4.353,4.56c1.381,2.487 2.072,4.836 2.072,7.046c0,2.211 -1.174,5.251 -3.523,9.119c-0.277,0.967 -0.829,2.28 -1.658,3.938c-0.829,1.658 -1.244,2.694 -1.244,3.109c-0.552,1.381 -1.45,2.072 -2.694,2.072c-1.243,0 -2.452,-0.587 -3.627,-1.761c-1.174,-1.175 -2.107,-2.591 -2.798,-4.249c-0.414,-1.658 -0.621,-3.109 -0.621,-4.352c0,-1.658 0.552,-3.316 1.658,-4.974c1.519,-1.52 2.279,-2.556 2.279,-3.109c0,-0.553 -0.76,-0.829 -2.279,-0.829c-1.658,0 -4.836,1.313 -9.534,3.938c-4.698,2.625 -8.428,5.388 -11.192,8.29c-2.487,2.349 -4.006,4.11 -4.559,5.285c-0.553,1.174 -0.829,2.936 -0.829,5.284c0,2.073 0.449,4.525 1.347,7.358c0.898,2.832 1.831,4.732 2.798,5.699c0.276,0.553 0.864,1.727 1.762,3.524c0.898,1.796 1.968,3.523 3.212,5.181c2.763,6.217 4.145,11.053 4.145,14.507c0,4.007 -1.554,6.909 -4.663,8.705c-3.109,1.796 -7.979,2.694 -14.611,2.694Z"
		style="fill:var(--text);" />
	<path
		d="M1511.11,768.124c-0.415,0.414 -1.52,0.621 -3.316,0.621c-3.04,0 -5.665,-0.552 -7.876,-1.658c-0.414,-0.276 -1.209,-0.967 -2.383,-2.072c-1.175,-1.105 -2.038,-2.073 -2.591,-2.902l-7.668,-8.082c-0.691,-1.382 -3.385,-4.422 -8.083,-9.119c-1.52,-1.935 -2.936,-3.489 -4.249,-4.664c-1.312,-1.174 -2.245,-1.761 -2.797,-1.761l-6.632,22.797c-1.106,1.935 -2.004,3.247 -2.695,3.938c-0.691,0.691 -1.52,1.036 -2.487,1.036c-1.658,0 -3.039,-0.725 -4.145,-2.176c-1.105,-1.451 -1.658,-3.419 -1.658,-5.906c-1.105,-4.007 2.556,-16.511 10.985,-37.513c0.414,-1.934 1.105,-4.179 2.072,-6.735c0.967,-2.556 1.658,-4.387 2.073,-5.493c2.21,-7.046 6.01,-16.856 11.398,-29.429l3.731,-8.497c2.349,-4.836 4.905,-9.879 7.668,-15.13c7.323,-13.54 11.952,-21.416 13.886,-23.626c1.105,-1.106 2.418,-1.658 3.938,-1.658c1.519,0 2.832,0.552 3.937,1.658c1.382,1.658 2.073,3.109 2.073,4.352c0,2.349 -1.727,6.287 -5.181,11.813c-1.52,3.178 -2.902,5.803 -4.145,7.876c-1.106,1.52 -2.418,3.73 -3.938,6.632c-0.967,2.763 -2.004,4.145 -3.109,4.145c-0.138,0.691 -0.38,1.589 -0.725,2.694c-0.346,1.105 -0.795,2.211 -1.347,3.316c-0.415,1.382 -1.106,3.04 -2.073,4.974c-0.967,1.935 -1.589,3.316 -1.865,4.145c-0.276,0.553 -0.656,1.382 -1.14,2.487c-0.484,1.106 -1.209,2.487 -2.176,4.145c-3.869,8.014 -6.01,12.988 -6.425,14.922c0,0.138 0.069,0.207 0.207,0.207c0.277,0 0.829,-0.276 1.658,-0.829c0.829,-0.552 1.52,-1.036 2.073,-1.45c3.316,-2.625 7.115,-5.182 11.399,-7.669c4.283,-2.487 7.599,-3.937 9.948,-4.352c1.796,-0.552 3.454,-0.829 4.974,-0.829c1.52,0 2.901,0.277 4.145,0.829c3.178,1.935 5.25,5.32 6.217,10.155c0,2.211 -1.071,5.769 -3.212,10.674c-2.142,4.905 -4.111,8.117 -5.907,9.637c-0.967,0.415 -1.692,0.794 -2.176,1.14c-0.484,0.345 -0.794,0.587 -0.933,0.725c0,0.553 -0.276,1.278 -0.829,2.176c-0.552,0.898 -1.312,1.555 -2.279,1.969c-1.935,1.935 -2.902,3.247 -2.902,3.938l0,1.036c-0.414,0 -1.278,0.484 -2.59,1.451c-1.313,0.967 -2.522,1.865 -3.627,2.694c-1.52,1.52 -2.729,2.418 -3.627,2.695c-0.898,0.276 -1.624,0.483 -2.176,0.621c-0.277,0.277 -0.864,0.587 -1.762,0.933c-0.898,0.345 -1.347,0.725 -1.347,1.14c0,0.967 2.245,3.972 6.736,9.015c4.49,5.043 7.564,8.117 9.222,9.223c1.382,0.691 2.418,1.761 3.109,3.212c0.691,1.451 1.036,2.867 1.036,4.249c0,0.691 -0.138,1.451 -0.414,2.28Zm-24.87,-36.684c2.348,-1.658 6.459,-4.939 12.331,-9.844c5.872,-4.905 9.499,-8.256 10.881,-10.052c0.829,-0.829 1.658,-2.176 2.487,-4.041c0.829,-1.865 1.243,-3.489 1.243,-4.871c0,-0.552 -0.138,-1.105 -0.414,-1.658c-0.277,-0.69 -4.214,0.899 -11.814,4.767c-4.283,2.487 -8.704,5.596 -13.264,9.326c-4.559,3.731 -7.806,7.185 -9.74,10.363c-0.415,1.382 0.069,2.798 1.45,4.249c1.382,1.45 2.971,2.176 4.767,2.176c0.967,0 1.658,-0.138 2.073,-0.415Z"
		style="fill:var(--text);" /><text x="1207.07px" y="767.709px"
		style="font-family:'Caveat-Regular', 'Caveat';font-size:207.25px;fill:var(--text);">ta</text>
	<g transform="matrix(0.972545,0.232715,-0.232715,0.972545,-200.308,-345.913)">
		<path
			d="M3115.9,77.859c-4.697,0 -8.773,-0.967 -12.228,-2.902c-3.454,-1.934 -5.733,-4.559 -6.839,-7.875c-0.967,-2.487 -1.451,-3.869 -1.451,-4.145c0,-0.829 0.484,-1.451 1.451,-1.865c0.967,0 2.107,0.414 3.42,1.243c1.312,0.829 2.383,1.382 3.212,1.658c2.073,1.934 4.905,2.902 8.498,2.902c2.763,0 5.284,-0.553 7.564,-1.658c2.28,-1.106 3.558,-2.418 3.834,-3.938c0,-0.691 -0.691,-3.109 -2.072,-7.254c-3.454,-4.974 -6.114,-10.052 -7.979,-15.233c-1.866,-5.181 -2.798,-9.568 -2.798,-13.16c0,-2.625 0.76,-5.32 2.28,-8.083c1.519,-2.763 3.592,-5.112 6.217,-7.047c3.454,-3.592 7.634,-6.839 12.539,-9.74c4.905,-2.902 9.36,-4.905 13.367,-6.011c1.658,0 3.696,0.208 6.114,0.622c2.418,0.415 4.111,0.898 5.078,1.451c1.52,0.553 2.97,2.072 4.352,4.559c1.382,2.487 2.073,4.836 2.073,7.047c0,2.211 -1.175,5.25 -3.524,9.119c-0.276,0.967 -0.829,2.28 -1.658,3.938c-0.829,1.658 -1.243,2.694 -1.243,3.108c-0.553,1.382 -1.451,2.073 -2.694,2.073c-1.244,0 -2.453,-0.587 -3.627,-1.762c-1.175,-1.174 -2.107,-2.59 -2.798,-4.248c-0.415,-1.658 -0.622,-3.109 -0.622,-4.353c0,-1.658 0.553,-3.316 1.658,-4.974c1.52,-1.519 2.28,-2.556 2.28,-3.108c0,-0.553 -0.76,-0.829 -2.28,-0.829c-1.658,0 -4.836,1.312 -9.533,3.937c-4.698,2.626 -8.429,5.389 -11.192,8.29c-2.487,2.349 -4.007,4.111 -4.559,5.285c-0.553,1.175 -0.829,2.936 -0.829,5.285c0,2.073 0.449,4.525 1.347,7.358c0.898,2.832 1.83,4.732 2.798,5.699c0.276,0.553 0.863,1.727 1.761,3.523c0.898,1.796 1.969,3.524 3.213,5.182c2.763,6.217 4.145,11.053 4.145,14.507c0,4.007 -1.555,6.908 -4.664,8.705c-3.108,1.796 -7.979,2.694 -14.611,2.694Z"
			style="fill:var(--text);" />
		<path
			d="M3223.46,79.931c-0.414,0.415 -1.52,0.622 -3.316,0.622c-3.039,0 -5.665,-0.553 -7.875,-1.658c-0.415,-0.276 -1.209,-0.967 -2.384,-2.072c-1.174,-1.106 -2.038,-2.073 -2.59,-2.902l-7.669,-8.083c-0.69,-1.381 -3.385,-4.421 -8.082,-9.119c-1.52,-1.934 -2.936,-3.488 -4.249,-4.663c-1.313,-1.174 -2.245,-1.761 -2.798,-1.761l-6.632,22.797c-1.105,1.934 -2.003,3.247 -2.694,3.938c-0.691,0.691 -1.52,1.036 -2.487,1.036c-1.658,0 -3.04,-0.725 -4.145,-2.176c-1.105,-1.451 -1.658,-3.42 -1.658,-5.907c-1.105,-4.007 2.556,-16.511 10.984,-37.512c0.415,-1.934 1.105,-4.18 2.073,-6.736c0.967,-2.556 1.658,-4.386 2.072,-5.492c2.211,-7.046 6.01,-16.856 11.399,-29.429l3.73,-8.498c2.349,-4.835 4.905,-9.879 7.669,-15.129c7.323,-13.54 11.951,-21.416 13.885,-23.626c1.106,-1.106 2.418,-1.658 3.938,-1.658c1.52,0 2.833,0.552 3.938,1.658c1.382,1.658 2.072,3.108 2.072,4.352c0,2.349 -1.727,6.286 -5.181,11.813c-1.52,3.178 -2.901,5.803 -4.145,7.876c-1.105,1.519 -2.418,3.73 -3.938,6.632c-0.967,2.763 -2.003,4.145 -3.108,4.145c-0.138,0.69 -0.38,1.589 -0.726,2.694c-0.345,1.105 -0.794,2.211 -1.347,3.316c-0.414,1.382 -1.105,3.04 -2.072,4.974c-0.967,1.934 -1.589,3.316 -1.866,4.145c-0.276,0.553 -0.656,1.382 -1.139,2.487c-0.484,1.105 -1.209,2.487 -2.177,4.145c-3.868,8.014 -6.01,12.988 -6.424,14.922c0,0.138 0.069,0.207 0.207,0.207c0.276,0 0.829,-0.276 1.658,-0.829c0.829,-0.552 1.52,-1.036 2.072,-1.451c3.316,-2.625 7.116,-5.181 11.399,-7.668c4.283,-2.487 7.599,-3.938 9.948,-4.352c1.796,-0.553 3.454,-0.829 4.974,-0.829c1.52,0 2.902,0.276 4.145,0.829c3.178,1.934 5.251,5.319 6.218,10.155c0,2.211 -1.071,5.769 -3.213,10.674c-2.141,4.905 -4.11,8.117 -5.906,9.637c-0.967,0.414 -1.693,0.794 -2.176,1.14c-0.484,0.345 -0.795,0.587 -0.933,0.725c0,0.553 -0.276,1.278 -0.829,2.176c-0.553,0.898 -1.313,1.555 -2.28,1.969c-1.934,1.934 -2.901,3.247 -2.901,3.938l0,1.036c-0.415,0 -1.278,0.484 -2.591,1.451c-1.312,0.967 -2.521,1.865 -3.627,2.694c-1.52,1.52 -2.729,2.418 -3.627,2.694c-0.898,0.277 -1.623,0.484 -2.176,0.622c-0.276,0.276 -0.863,0.587 -1.761,0.933c-0.899,0.345 -1.348,0.725 -1.348,1.14c0,0.967 2.246,3.972 6.736,9.015c4.491,5.043 7.565,8.117 9.223,9.223c1.381,0.69 2.418,1.761 3.108,3.212c0.691,1.451 1.037,2.867 1.037,4.249c0,0.69 -0.138,1.45 -0.415,2.279Zm-24.87,-36.683c2.349,-1.658 6.459,-4.939 12.332,-9.844c5.872,-4.905 9.499,-8.256 10.88,-10.052c0.829,-0.829 1.658,-2.176 2.487,-4.041c0.829,-1.866 1.244,-3.489 1.244,-4.871c0,-0.552 -0.138,-1.105 -0.415,-1.658c-0.276,-0.691 -4.214,0.898 -11.813,4.767c-4.283,2.487 -8.705,5.596 -13.264,9.326c-4.56,3.731 -7.807,7.185 -9.741,10.363c-0.414,1.381 0.069,2.798 1.451,4.248c1.382,1.451 2.971,2.177 4.767,2.177c0.967,0 1.658,-0.139 2.072,-0.415Z"
			style="fill:var(--text);" /><text x="2919.43px" y="79.517px"
			style="font-family:'Caveat-Regular', 'Caveat';font-size:207.25px;fill:var(--text);">ta</text></g>
	<g transform="matrix(0.974855,-0.222842,0.222842,0.974855,-350.482,-278.821)">
		<path
			d="M339.321,2513.34c-4.698,0 -8.773,-0.967 -12.228,-2.902c-3.454,-1.934 -5.734,-4.559 -6.839,-7.875c-0.967,-2.487 -1.451,-3.869 -1.451,-4.145c0,-0.829 0.484,-1.451 1.451,-1.866c0.967,0 2.107,0.415 3.42,1.244c1.312,0.829 2.383,1.382 3.212,1.658c2.073,1.934 4.905,2.901 8.497,2.901c2.764,0 5.285,-0.552 7.565,-1.658c2.28,-1.105 3.558,-2.417 3.834,-3.937c0,-0.691 -0.691,-3.109 -2.072,-7.254c-3.454,-4.974 -6.114,-10.052 -7.979,-15.233c-1.866,-5.181 -2.798,-9.568 -2.798,-13.16c0,-2.626 0.76,-5.32 2.279,-8.083c1.52,-2.764 3.593,-5.112 6.218,-7.047c3.454,-3.592 7.634,-6.839 12.539,-9.74c4.905,-2.902 9.36,-4.905 13.367,-6.011c1.658,0 3.696,0.208 6.114,0.622c2.418,0.415 4.111,0.898 5.078,1.451c1.52,0.552 2.97,2.072 4.352,4.559c1.382,2.487 2.073,4.836 2.073,7.047c0,2.21 -1.175,5.25 -3.524,9.119c-0.276,0.967 -0.829,2.28 -1.658,3.938c-0.829,1.658 -1.243,2.694 -1.243,3.108c-0.553,1.382 -1.451,2.073 -2.695,2.073c-1.243,0 -2.452,-0.587 -3.626,-1.762c-1.175,-1.174 -2.107,-2.59 -2.798,-4.248c-0.415,-1.658 -0.622,-3.109 -0.622,-4.353c0,-1.658 0.553,-3.316 1.658,-4.974c1.52,-1.52 2.28,-2.556 2.28,-3.108c0,-0.553 -0.76,-0.829 -2.28,-0.829c-1.658,0 -4.836,1.312 -9.534,3.937c-4.697,2.625 -8.428,5.389 -11.191,8.29c-2.487,2.349 -4.007,4.111 -4.56,5.285c-0.552,1.175 -0.829,2.936 -0.829,5.285c0,2.073 0.449,4.525 1.348,7.357c0.898,2.833 1.83,4.733 2.797,5.7c0.277,0.553 0.864,1.727 1.762,3.523c0.898,1.796 1.969,3.523 3.212,5.181c2.764,6.218 4.145,11.054 4.145,14.508c0,4.007 -1.554,6.908 -4.663,8.704c-3.108,1.797 -7.979,2.695 -14.611,2.695Z"
			style="fill:var(--text);" />
		<path
			d="M446.884,2515.42c-0.414,0.415 -1.52,0.622 -3.316,0.622c-3.04,0 -5.665,-0.553 -7.875,-1.658c-0.415,-0.276 -1.209,-0.967 -2.384,-2.073c-1.174,-1.105 -2.038,-2.072 -2.59,-2.901l-7.669,-8.083c-0.69,-1.381 -3.385,-4.421 -8.082,-9.119c-1.52,-1.934 -2.936,-3.489 -4.249,-4.663c-1.313,-1.174 -2.245,-1.762 -2.798,-1.762l-6.632,22.798c-1.105,1.934 -2.003,3.247 -2.694,3.938c-0.691,0.691 -1.52,1.036 -2.487,1.036c-1.658,0 -3.04,-0.725 -4.145,-2.176c-1.106,-1.451 -1.658,-3.42 -1.658,-5.907c-1.106,-4.007 2.556,-16.511 10.984,-37.512c0.415,-1.934 1.105,-4.18 2.073,-6.736c0.967,-2.556 1.658,-4.387 2.072,-5.492c2.211,-7.046 6.01,-16.856 11.399,-29.429l3.73,-8.498c2.349,-4.836 4.905,-9.879 7.669,-15.129c7.322,-13.54 11.951,-21.416 13.885,-23.627c1.106,-1.105 2.418,-1.658 3.938,-1.658c1.52,0 2.833,0.553 3.938,1.658c1.382,1.658 2.072,3.109 2.072,4.353c0,2.349 -1.727,6.286 -5.181,11.813c-1.52,3.178 -2.901,5.803 -4.145,7.875c-1.105,1.52 -2.418,3.731 -3.938,6.632c-0.967,2.764 -2.003,4.146 -3.108,4.146c-0.139,0.69 -0.38,1.588 -0.726,2.694c-0.345,1.105 -0.794,2.21 -1.347,3.316c-0.414,1.381 -1.105,3.039 -2.072,4.974c-0.968,1.934 -1.589,3.316 -1.866,4.145c-0.276,0.552 -0.656,1.381 -1.14,2.487c-0.483,1.105 -1.208,2.487 -2.176,4.145c-3.868,8.013 -6.01,12.987 -6.424,14.922c0,0.138 0.069,0.207 0.207,0.207c0.276,0 0.829,-0.276 1.658,-0.829c0.829,-0.553 1.52,-1.036 2.072,-1.451c3.316,-2.625 7.116,-5.181 11.399,-7.668c4.283,-2.487 7.599,-3.938 9.948,-4.352c1.796,-0.553 3.454,-0.829 4.974,-0.829c1.52,0 2.902,0.276 4.145,0.829c3.178,1.934 5.25,5.319 6.218,10.155c0,2.211 -1.071,5.769 -3.213,10.673c-2.141,4.905 -4.11,8.118 -5.906,9.638c-0.968,0.414 -1.693,0.794 -2.176,1.139c-0.484,0.346 -0.795,0.588 -0.933,0.726c0,0.553 -0.276,1.278 -0.829,2.176c-0.553,0.898 -1.313,1.554 -2.28,1.969c-1.934,1.934 -2.901,3.247 -2.901,3.938l0,1.036c-0.415,0 -1.278,0.483 -2.591,1.451c-1.313,0.967 -2.522,1.865 -3.627,2.694c-1.52,1.52 -2.729,2.418 -3.627,2.694c-0.898,0.276 -1.623,0.484 -2.176,0.622c-0.276,0.276 -0.863,0.587 -1.762,0.933c-0.898,0.345 -1.347,0.725 -1.347,1.139c0,0.968 2.246,3.973 6.736,9.016c4.49,5.043 7.565,8.117 9.223,9.222c1.381,0.691 2.418,1.762 3.108,3.213c0.691,1.451 1.037,2.867 1.037,4.248c0,0.691 -0.139,1.451 -0.415,2.28Zm-24.87,-36.683c2.349,-1.658 6.459,-4.94 12.331,-9.845c5.873,-4.904 9.499,-8.255 10.881,-10.051c0.829,-0.829 1.658,-2.176 2.487,-4.042c0.829,-1.865 1.244,-3.488 1.244,-4.87c0,-0.553 -0.139,-1.105 -0.415,-1.658c-0.276,-0.691 -4.214,0.898 -11.813,4.767c-4.283,2.487 -8.705,5.596 -13.264,9.326c-4.56,3.731 -7.807,7.185 -9.741,10.363c-0.414,1.381 0.069,2.798 1.451,4.248c1.381,1.451 2.97,2.176 4.767,2.176c0.967,0 1.658,-0.138 2.072,-0.414Z"
			style="fill:var(--text);" /><text x="142.848px" y="2515px"
			style="font-family:'Caveat-Regular', 'Caveat';font-size:207.25px;fill:var(--text);">ta</text></g>
	<g transform="matrix(0.999795,0.0202448,-0.0202448,0.999795,8.04328,27.9575)">
		<path
			d="M331.364,1506.21c-2.072,1.105 -4.283,1.658 -6.632,1.658c-3.454,0 -6.252,-1.52 -8.394,-4.56c-2.141,-3.039 -3.212,-7.115 -3.212,-12.227c0,-2.349 0.484,-6.252 1.451,-11.71c0.967,-5.458 2.072,-9.983 3.316,-13.575c0.138,-0.276 0.345,-0.829 0.622,-1.658c0.276,-0.829 0.38,-1.416 0.31,-1.762c-0.069,-0.345 -0.241,-0.518 -0.518,-0.518c-0.69,0 -1.934,0.898 -3.73,2.695c-3.869,3.316 -8.014,7.495 -12.435,12.538c-4.422,5.043 -8.083,9.879 -10.984,14.508c-2.902,4.628 -4.353,7.841 -4.353,9.637c0,1.52 -0.587,2.694 -1.761,3.523c-1.175,0.829 -2.522,1.244 -4.042,1.244c-0.967,0 -1.865,-0.208 -2.694,-0.622c-2.072,-1.244 -3.489,-2.625 -4.249,-4.145c-0.76,-1.52 -1.14,-3.731 -1.14,-6.632c0,-2.349 0.07,-4.214 0.208,-5.596c0.552,-9.533 1.554,-17.927 3.005,-25.181c1.451,-7.254 4.249,-17.582 8.394,-30.984c0.138,-0.414 1.45,-3.937 3.937,-10.569c4.283,-12.159 6.701,-18.791 7.254,-19.897c0.967,-0.967 2.383,-3.972 4.249,-9.015c1.865,-5.043 2.798,-8.117 2.798,-9.223c0,-2.072 0.69,-3.799 2.072,-5.181l2.073,-2.072c1.243,0 2.694,0.518 4.352,1.554c1.658,1.036 2.694,2.245 3.109,3.627c0.967,1.796 1.45,3.73 1.45,5.803c0,1.934 -0.587,4.318 -1.761,7.15c-1.175,2.833 -3.144,6.943 -5.907,12.332c-4.007,8.013 -7.737,17.201 -11.191,27.564c-1.52,4.421 -3.627,11.295 -6.322,20.621c-2.694,9.326 -4.041,14.75 -4.041,16.269c0,0.968 0.484,1.451 1.451,1.451c1.105,0 2.28,-0.829 3.523,-2.487c0.553,-1.105 3.178,-3.799 7.876,-8.083c0.552,-0.552 3.661,-3.419 9.326,-8.601c5.665,-5.181 9.741,-7.771 12.228,-7.771c1.658,0 3.281,0.621 4.87,1.865c1.589,1.243 2.66,2.694 3.212,4.352c0.553,0.553 0.968,1.105 1.244,1.658c0.276,0.553 0.553,0.967 0.829,1.244c0.276,0.276 0.414,1.105 0.414,2.487c0,4.835 -1.519,11.813 -4.559,20.932c-2.349,9.119 -3.523,14.577 -3.523,16.373c0,1.243 0.345,1.865 1.036,1.865c0.414,-0.276 1.243,-0.76 2.487,-1.451c1.243,-0.691 2.694,-1.52 4.352,-2.487c4.698,-3.178 8.843,-4.767 12.435,-4.767c1.658,0 2.487,0.553 2.487,1.658c0,0.277 -0.207,0.76 -0.622,1.451c-0.414,0.691 -0.621,1.244 -0.621,1.658l0,1.036c0,0.691 -1.866,2.764 -5.596,6.218c-3.731,3.454 -6.425,5.388 -8.083,5.803Z"
			style="fill:var(--text);" />
		<path
			d="M482.035,1512.23c-0.967,0.553 -2.245,0.346 -3.834,-0.622c-1.589,-0.967 -3.143,-2.417 -4.663,-4.352c-1.105,-1.796 -1.762,-3.661 -1.969,-5.596c-0.207,-1.934 -0.311,-5.941 -0.311,-12.02c0,-1.382 -0.276,-2.073 -0.829,-2.073c-0.414,0 -1.382,0.657 -2.901,1.969c-1.52,1.313 -3.385,3.075 -5.596,5.285c-3.592,3.454 -6.908,6.149 -9.948,8.083c-3.04,1.934 -5.527,2.832 -7.461,2.694c-1.52,0 -3.143,-1.036 -4.871,-3.109c-1.727,-2.072 -3.074,-4.49 -4.041,-7.253c-0.414,-1.658 -0.622,-3.593 -0.622,-5.803c0,-5.803 1.209,-12.85 3.627,-21.14c2.418,-8.29 5.251,-15.44 8.497,-21.45c3.247,-6.011 6.114,-9.016 8.601,-9.016c2.073,0 4.007,2.28 5.803,6.84c0.415,0.829 0.622,1.519 0.622,2.072c0,0.967 -0.553,1.934 -1.658,2.902c-2.072,2.625 -4.49,7.322 -7.254,14.093c-2.763,6.77 -4.939,13.056 -6.528,18.859c-1.589,5.803 -1.9,8.705 -0.933,8.705c1.935,0 4.214,-0.76 6.84,-2.28c2.625,-1.52 5.25,-3.523 7.875,-6.01c2.625,-2.625 4.974,-5.423 7.047,-8.394c2.072,-2.97 4.628,-7.012 7.668,-12.124c5.803,-9.257 8.981,-14.646 9.533,-16.165c2.073,-3.869 3.558,-6.391 4.456,-7.565c0.898,-1.174 2.038,-1.969 3.42,-2.383l2.901,0c0.829,0.138 1.797,0.759 2.902,1.865c0.967,0.414 1.554,0.863 1.762,1.347c0.207,0.484 0.31,1.14 0.31,1.969l-3.316,7.668l-1.865,4.352c-0.138,0.553 -0.898,2.142 -2.28,4.767c-3.177,7.047 -5.595,12.711 -7.253,16.995c-1.658,4.283 -2.902,8.704 -3.731,13.264c-0.138,0.691 -0.207,1.865 -0.207,3.523c0,4.145 0.414,7.046 1.243,8.704c1.244,2.487 2.487,4.284 3.731,5.389c0.691,0.553 1.036,1.105 1.036,1.658c0,0.967 -0.794,1.934 -2.383,2.901c-1.589,0.968 -2.729,1.451 -3.42,1.451Z"
			style="fill:var(--text);" />
		<path
			d="M535.506,1552.23c-2.073,0.829 -4.283,1.243 -6.632,1.243c-3.316,0 -6.667,-0.76 -10.052,-2.28c-3.385,-1.52 -6.39,-3.592 -9.015,-6.217c-1.52,-1.382 -2.971,-3.834 -4.353,-7.358c-1.381,-3.523 -1.658,-5.492 -0.829,-5.906c0.553,-0.277 1.106,-0.415 1.658,-0.415c1.106,0 2.177,0.208 3.213,0.622c1.036,0.415 1.554,0.898 1.554,1.451c1.106,0.967 2.66,2.141 4.663,3.523c2.004,1.382 3.489,2.142 4.456,2.28c2.487,0.829 4.422,1.243 5.803,1.243c1.52,0 2.971,-0.483 4.353,-1.45c2.072,-1.797 3.765,-4.042 5.077,-6.736c1.313,-2.694 2.66,-6.598 4.042,-11.71l0.621,-2.694c3.593,-16.166 6.011,-26.183 7.254,-30.051c0.553,-2.211 0.829,-4.007 0.829,-5.389c0,-1.105 -0.207,-1.658 -0.622,-1.658c-0.276,0 -0.76,0.415 -1.45,1.244c-1.244,0.414 -2.971,1.174 -5.182,2.279c-4.697,2.349 -7.737,3.662 -9.119,3.938l-4.559,0.207c-0.553,0.277 -1.175,0.415 -1.865,0.415c-1.52,0 -3.386,-0.449 -5.596,-1.347c-2.211,-0.898 -4.214,-2.038 -6.011,-3.42c-1.934,-2.487 -3.074,-4.214 -3.419,-5.181c-0.346,-0.967 -0.518,-3.109 -0.518,-6.425c-0.138,-2.211 0.932,-5.423 3.212,-9.637c2.28,-4.214 5.078,-8.186 8.394,-11.917c4.283,-4.283 9.879,-8.29 16.787,-12.02c6.908,-3.731 12.366,-5.527 16.373,-5.389c0.552,0.138 1.623,0.276 3.212,0.415c1.589,0.138 3.213,0.829 4.871,2.072c1.796,0.967 3.108,2.003 3.937,3.109c0.829,1.105 2.004,3.247 3.524,6.425c1.658,4.283 2.487,8.497 2.487,12.642c0,4.283 -1.037,7.461 -3.109,9.533c-0.415,0 -1.036,0.139 -1.865,0.415c-0.829,0.276 -1.52,0.414 -2.073,0.414c-0.414,0 -0.933,0.484 -1.554,1.451c-0.622,0.967 -1.002,2.073 -1.14,3.316c-0.277,1.796 -0.691,3.385 -1.244,4.767c-0.691,1.658 -1.036,2.625 -1.036,2.901c0,0.415 -0.104,0.795 -0.311,1.14c-0.207,0.346 -0.38,0.657 -0.518,0.933c-1.105,1.934 -1.658,3.869 -1.658,5.803l-0.829,2.28c-1.105,3.592 -1.658,5.526 -1.658,5.803l-0.829,4.145c-0.276,0.691 -0.691,1.83 -1.243,3.419c-0.553,1.589 -1.106,4.733 -1.658,9.43c-5.113,21.831 -10.57,34.611 -16.373,38.342Zm-14.301,-75.232c2.073,0.829 4.146,1.243 6.218,1.243c5.25,0 11.33,-2.763 18.238,-8.29c6.494,-4.836 10.708,-10.777 12.642,-17.823c0.553,-1.244 0.829,-2.418 0.829,-3.524c0,-1.519 -0.967,-2.349 -2.901,-2.487c-0.415,-0.138 -1.106,-0.207 -2.073,-0.207c-4.836,0 -10.777,2.28 -17.823,6.839c-0.829,1.244 -1.969,2.384 -3.42,3.42c-1.451,1.036 -2.383,1.693 -2.798,1.969c-0.276,0.829 -0.829,1.52 -1.658,2.072c-2.21,1.797 -4.214,4.836 -6.01,9.119c-1.796,4.284 -2.211,6.84 -1.244,7.669Z"
			style="fill:var(--text);" />
		<path
			d="M705.658,1512.23c-1.934,-0.552 -3.523,-1.174 -4.766,-1.865c-1.244,-0.691 -2.902,-2.003 -4.974,-3.938c-2.487,-3.316 -4.111,-6.39 -4.871,-9.222c-0.76,-2.833 -1.14,-7.358 -1.14,-13.575c0,-3.316 1.866,-12.435 5.596,-27.357c-0.276,0.967 0.207,-1.037 1.451,-6.011c0.414,-1.519 -0.138,-2.487 -1.658,-2.901c-1.52,-0.415 -3.662,-0.622 -6.425,-0.622c-2.349,0 -3.73,-0.138 -4.145,-0.414c-0.414,-0.139 -0.656,-0.346 -0.725,-0.622c-0.069,-0.277 -0.104,-0.484 -0.104,-0.622c0,-0.691 -0.276,-1.52 -0.829,-2.487c-0.138,-0.138 -0.207,-0.345 -0.207,-0.622c0,-0.691 0.38,-1.45 1.14,-2.279c0.76,-0.829 1.692,-1.313 2.798,-1.451c0.69,-0.138 2.279,-0.346 4.766,-0.622c2.487,-0.276 4.836,-0.829 7.047,-1.658c2.211,-0.829 3.938,-2.003 5.181,-3.523c1.796,-4.56 4.076,-9.706 6.839,-15.44c2.764,-5.734 4.629,-9.154 5.596,-10.259c2.211,-1.106 3.731,-1.658 4.56,-1.658c0.829,0 1.519,0.276 2.072,0.829c0.553,0.552 1.313,1.52 2.28,2.901c0.138,0.277 0.483,0.76 1.036,1.451c0.553,0.691 0.829,1.382 0.829,2.073c0,1.105 -0.518,2.763 -1.554,4.974c-1.036,2.21 -3.074,6.079 -6.114,11.606l-2.694,5.181c0.414,0.138 1.381,0.207 2.901,0.207c1.52,0 2.763,-0.069 3.731,-0.207c3.039,-0.553 5.872,-0.829 8.497,-0.829c1.382,0 2.349,0.069 2.901,0.207c3.178,0 5.493,0.587 6.943,1.762c1.451,1.174 2.315,3.143 2.591,5.906c0.276,1.52 0,2.418 -0.829,2.695c-0.829,0.276 -3.178,0.414 -7.047,0.414c-16.027,0.691 -24.11,1.313 -24.248,1.865c-0.553,0.415 -1.589,2.833 -3.109,7.254c-1.519,4.421 -2.832,8.636 -3.937,12.642c-1.797,8.29 -2.695,15.613 -2.695,21.969c0,5.803 0.829,9.672 2.487,11.606c0.691,0.691 2.004,1.036 3.938,1.036c1.934,0 4.042,-0.38 6.321,-1.14c2.28,-0.76 4.18,-1.761 5.7,-3.005c2.487,-2.072 4.559,-3.109 6.217,-3.109c0.829,0 1.485,0.242 1.969,0.726c0.484,0.483 0.725,1.071 0.725,1.761c0,1.52 -0.829,3.455 -2.487,5.803c-2.072,3.178 -4.835,5.803 -8.29,7.876c-3.454,2.072 -6.77,3.109 -9.948,3.109c-1.519,0 -2.625,-0.138 -3.316,-0.415Z"
			style="fill:var(--text);" /><text x="176.755px" y="1512.64px"
			style="font-family:'Caveat-Regular', 'Caveat';font-size:207.25px;fill:var(--text);">t<tspan
				x="339.447px 562.863px " y="1512.64px 1512.64px ">oh</tspan></text></g>
	<g transform="matrix(0.971343,-0.237684,0.237684,0.971343,27.313,-358.087)">
		<path
			d="M236.849,802.667c-2.073,1.105 -4.283,1.658 -6.632,1.658c-3.454,0 -6.252,-1.52 -8.394,-4.56c-2.141,-3.039 -3.212,-7.115 -3.212,-12.227c0,-2.349 0.483,-6.252 1.45,-11.71c0.968,-5.458 2.073,-9.983 3.316,-13.575c0.139,-0.276 0.346,-0.829 0.622,-1.658c0.277,-0.829 0.38,-1.416 0.311,-1.762c-0.069,-0.345 -0.242,-0.518 -0.518,-0.518c-0.691,0 -1.934,0.898 -3.731,2.695c-3.868,3.316 -8.013,7.495 -12.435,12.538c-4.421,5.043 -8.082,9.879 -10.984,14.508c-2.901,4.628 -4.352,7.841 -4.352,9.637c0,1.52 -0.587,2.694 -1.762,3.523c-1.174,0.829 -2.521,1.244 -4.041,1.244c-0.967,0 -1.865,-0.208 -2.694,-0.622c-2.073,-1.244 -3.489,-2.625 -4.249,-4.145c-0.76,-1.52 -1.14,-3.731 -1.14,-6.632c0,-2.349 0.069,-4.214 0.207,-5.596c0.553,-9.533 1.555,-17.927 3.006,-25.181c1.45,-7.254 4.248,-17.582 8.393,-30.984c0.138,-0.414 1.451,-3.937 3.938,-10.569c4.283,-12.159 6.701,-18.791 7.254,-19.897c0.967,-0.967 2.383,-3.972 4.248,-9.015c1.866,-5.043 2.798,-8.117 2.798,-9.223c0,-2.072 0.691,-3.799 2.073,-5.181l2.072,-2.072c1.244,0 2.694,0.518 4.352,1.554c1.658,1.036 2.695,2.245 3.109,3.627c0.967,1.796 1.451,3.73 1.451,5.803c0,1.934 -0.587,4.318 -1.762,7.15c-1.174,2.833 -3.143,6.943 -5.906,12.332c-4.007,8.013 -7.738,17.201 -11.192,27.564c-1.52,4.421 -3.627,11.295 -6.321,20.621c-2.694,9.326 -4.041,14.75 -4.041,16.269c0,0.968 0.483,1.451 1.45,1.451c1.106,0 2.28,-0.829 3.524,-2.487c0.552,-1.105 3.178,-3.799 7.875,-8.083c0.553,-0.552 3.662,-3.419 9.326,-8.601c5.665,-5.181 9.741,-7.771 12.228,-7.771c1.658,0 3.282,0.621 4.871,1.865c1.589,1.243 2.659,2.694 3.212,4.352c0.553,0.553 0.967,1.105 1.244,1.658c0.276,0.553 0.552,0.967 0.829,1.244c0.276,0.276 0.414,1.105 0.414,2.487c0,4.835 -1.52,11.813 -4.559,20.932c-2.349,9.119 -3.524,14.577 -3.524,16.373c0,1.243 0.346,1.865 1.037,1.865c0.414,-0.276 1.243,-0.76 2.487,-1.451c1.243,-0.691 2.694,-1.52 4.352,-2.487c4.697,-3.178 8.842,-4.767 12.435,-4.767c1.658,0 2.487,0.553 2.487,1.658c0,0.277 -0.207,0.76 -0.622,1.451c-0.414,0.691 -0.622,1.244 -0.622,1.658l0,1.036c0,0.691 -1.865,2.764 -5.595,6.218c-3.731,3.454 -6.425,5.388 -8.083,5.803Z"
			style="fill:var(--text);" />
		<path
			d="M387.52,808.677c-0.967,0.553 -2.245,0.346 -3.834,-0.622c-1.589,-0.967 -3.144,-2.417 -4.663,-4.352c-1.106,-1.796 -1.762,-3.661 -1.969,-5.596c-0.208,-1.934 -0.311,-5.941 -0.311,-12.02c0,-1.382 -0.277,-2.073 -0.829,-2.073c-0.415,0 -1.382,0.657 -2.902,1.969c-1.52,1.313 -3.385,3.075 -5.595,5.285c-3.593,3.454 -6.909,6.149 -9.948,8.083c-3.04,1.934 -5.527,2.832 -7.462,2.694c-1.519,0 -3.143,-1.036 -4.87,-3.109c-1.727,-2.072 -3.074,-4.49 -4.041,-7.253c-0.415,-1.658 -0.622,-3.593 -0.622,-5.803c0,-5.803 1.209,-12.85 3.627,-21.14c2.418,-8.29 5.25,-15.44 8.497,-21.45c3.247,-6.011 6.114,-9.016 8.601,-9.016c2.073,0 4.007,2.28 5.803,6.84c0.415,0.829 0.622,1.519 0.622,2.072c0,0.967 -0.553,1.934 -1.658,2.902c-2.073,2.625 -4.491,7.322 -7.254,14.093c-2.763,6.77 -4.939,13.056 -6.528,18.859c-1.589,5.803 -1.9,8.705 -0.933,8.705c1.934,0 4.214,-0.76 6.839,-2.28c2.625,-1.52 5.251,-3.523 7.876,-6.01c2.625,-2.625 4.974,-5.423 7.046,-8.394c2.073,-2.97 4.629,-7.012 7.669,-12.124c5.803,-9.257 8.98,-14.646 9.533,-16.165c2.073,-3.869 3.558,-6.391 4.456,-7.565c0.898,-1.174 2.038,-1.969 3.42,-2.383l2.901,0c0.829,0.138 1.796,0.759 2.902,1.865c0.967,0.414 1.554,0.863 1.761,1.347c0.207,0.484 0.311,1.14 0.311,1.969l-3.316,7.668l-1.865,4.352c-0.138,0.553 -0.898,2.142 -2.28,4.767c-3.178,7.047 -5.596,12.711 -7.254,16.995c-1.658,4.283 -2.901,8.704 -3.73,13.264c-0.138,0.69 -0.207,1.865 -0.207,3.523c0,4.145 0.414,7.046 1.243,8.704c1.244,2.487 2.487,4.284 3.731,5.389c0.69,0.553 1.036,1.105 1.036,1.658c0,0.967 -0.795,1.934 -2.384,2.901c-1.588,0.968 -2.728,1.451 -3.419,1.451Z"
			style="fill:var(--text);" />
		<path
			d="M440.99,848.677c-2.072,0.829 -4.283,1.243 -6.632,1.243c-3.316,0 -6.666,-0.76 -10.051,-2.28c-3.385,-1.52 -6.39,-3.592 -9.016,-6.217c-1.519,-1.382 -2.97,-3.834 -4.352,-7.358c-1.382,-3.523 -1.658,-5.492 -0.829,-5.906c0.553,-0.277 1.105,-0.415 1.658,-0.415c1.105,0 2.176,0.208 3.212,0.622c1.037,0.415 1.555,0.898 1.555,1.451c1.105,0.967 2.66,2.141 4.663,3.523c2.003,1.382 3.489,2.142 4.456,2.28c2.487,0.829 4.421,1.243 5.803,1.243c1.52,0 2.97,-0.483 4.352,-1.45c2.073,-1.797 3.765,-4.042 5.078,-6.736c1.312,-2.694 2.66,-6.598 4.041,-11.71l0.622,-2.694c3.592,-16.166 6.01,-26.183 7.254,-30.051c0.552,-2.211 0.829,-4.007 0.829,-5.389c0,-1.105 -0.208,-1.658 -0.622,-1.658c-0.276,0 -0.76,0.415 -1.451,1.244c-1.243,0.414 -2.97,1.174 -5.181,2.279c-4.698,2.349 -7.737,3.662 -9.119,3.938l-4.56,0.207c-0.552,0.277 -1.174,0.415 -1.865,0.415c-1.52,0 -3.385,-0.449 -5.596,-1.347c-2.21,-0.898 -4.214,-2.038 -6.01,-3.42c-1.934,-2.487 -3.074,-4.214 -3.42,-5.181c-0.345,-0.967 -0.518,-3.109 -0.518,-6.425c-0.138,-2.211 0.933,-5.423 3.213,-9.637c2.28,-4.214 5.077,-8.186 8.393,-11.917c4.284,-4.283 9.879,-8.29 16.788,-12.02c6.908,-3.731 12.366,-5.527 16.372,-5.389c0.553,0.138 1.624,0.276 3.213,0.415c1.589,0.138 3.212,0.829 4.87,2.072c1.796,0.967 3.109,2.003 3.938,3.109c0.829,1.105 2.003,3.247 3.523,6.425c1.658,4.283 2.487,8.497 2.487,12.642c0,4.283 -1.036,7.461 -3.109,9.533c-0.414,0 -1.036,0.139 -1.865,0.415c-0.829,0.276 -1.52,0.414 -2.072,0.414c-0.415,0 -0.933,0.484 -1.555,1.451c-0.621,0.967 -1.001,2.073 -1.14,3.316c-0.276,1.796 -0.69,3.385 -1.243,4.767c-0.691,1.658 -1.036,2.625 -1.036,2.901c0,0.415 -0.104,0.795 -0.311,1.14c-0.207,0.346 -0.38,0.657 -0.518,0.933c-1.106,1.934 -1.658,3.869 -1.658,5.803l-0.829,2.28c-1.106,3.592 -1.658,5.526 -1.658,5.803l-0.829,4.145c-0.277,0.691 -0.691,1.83 -1.244,3.419c-0.552,1.589 -1.105,4.733 -1.658,9.43c-5.112,21.831 -10.57,34.611 -16.373,38.342Zm-14.3,-75.232c2.073,0.829 4.145,1.243 6.218,1.243c5.25,0 11.329,-2.763 18.238,-8.29c6.494,-4.836 10.708,-10.777 12.642,-17.823c0.553,-1.244 0.829,-2.418 0.829,-3.524c0,-1.52 -0.967,-2.349 -2.902,-2.487c-0.414,-0.138 -1.105,-0.207 -2.072,-0.207c-4.836,0 -10.777,2.28 -17.824,6.839c-0.829,1.244 -1.968,2.384 -3.419,3.42c-1.451,1.036 -2.384,1.693 -2.798,1.969c-0.276,0.829 -0.829,1.52 -1.658,2.072c-2.211,1.797 -4.214,4.836 -6.01,9.119c-1.797,4.284 -2.211,6.84 -1.244,7.669Z"
			style="fill:var(--text);" />
		<path
			d="M611.143,808.677c-1.934,-0.552 -3.523,-1.174 -4.767,-1.865c-1.243,-0.691 -2.901,-2.003 -4.974,-3.938c-2.487,-3.316 -4.11,-6.39 -4.87,-9.222c-0.76,-2.833 -1.14,-7.358 -1.14,-13.575c0,-3.316 1.865,-12.435 5.596,-27.357c-0.277,0.967 0.207,-1.037 1.45,-6.011c0.415,-1.519 -0.138,-2.487 -1.658,-2.901c-1.519,-0.415 -3.661,-0.622 -6.424,-0.622c-2.349,0 -3.731,-0.138 -4.145,-0.414c-0.415,-0.139 -0.657,-0.346 -0.726,-0.622c-0.069,-0.277 -0.103,-0.484 -0.103,-0.622c0,-0.691 -0.277,-1.52 -0.829,-2.487c-0.138,-0.138 -0.208,-0.345 -0.208,-0.622c0,-0.691 0.38,-1.45 1.14,-2.279c0.76,-0.829 1.693,-1.313 2.798,-1.451c0.691,-0.138 2.28,-0.346 4.767,-0.622c2.487,-0.276 4.836,-0.829 7.047,-1.658c2.21,-0.829 3.937,-2.003 5.181,-3.523c1.796,-4.56 4.076,-9.706 6.839,-15.44c2.763,-5.734 4.629,-9.154 5.596,-10.259c2.21,-1.106 3.73,-1.658 4.559,-1.658c0.829,0 1.52,0.276 2.073,0.829c0.552,0.552 1.312,1.52 2.28,2.901c0.138,0.277 0.483,0.76 1.036,1.451c0.552,0.691 0.829,1.382 0.829,2.073c0,1.105 -0.518,2.763 -1.555,4.974c-1.036,2.21 -3.074,6.079 -6.113,11.606l-2.695,5.181c0.415,0.138 1.382,0.207 2.902,0.207c1.52,0 2.763,-0.069 3.73,-0.207c3.04,-0.553 5.872,-0.829 8.498,-0.829c1.381,0 2.348,0.069 2.901,0.207c3.178,0 5.492,0.587 6.943,1.762c1.451,1.174 2.314,3.143 2.591,5.906c0.276,1.52 0,2.418 -0.829,2.695c-0.829,0.276 -3.178,0.414 -7.047,0.414c-16.027,0.691 -24.11,1.313 -24.248,1.865c-0.553,0.415 -1.589,2.833 -3.109,7.254c-1.52,4.421 -2.832,8.636 -3.938,12.642c-1.796,8.29 -2.694,15.613 -2.694,21.969c0,5.803 0.829,9.672 2.487,11.606c0.691,0.691 2.003,1.036 3.938,1.036c1.934,0 4.041,-0.38 6.321,-1.14c2.28,-0.76 4.179,-1.761 5.699,-3.005c2.487,-2.072 4.56,-3.109 6.218,-3.109c0.829,0 1.485,0.242 1.969,0.726c0.483,0.483 0.725,1.071 0.725,1.761c0,1.52 -0.829,3.455 -2.487,5.803c-2.072,3.178 -4.836,5.803 -8.29,7.876c-3.454,2.072 -6.77,3.109 -9.948,3.109c-1.52,0 -2.625,-0.138 -3.316,-0.415Z"
			style="fill:var(--text);" /><text x="82.24px" y="809.092px"
			style="font-family:'Caveat-Regular', 'Caveat';font-size:207.25px;fill:var(--text);">t<tspan
				x="244.932px 468.347px " y="809.092px 809.092px ">oh</tspan></text></g>
	<g transform="matrix(0.981692,-0.190476,0.190476,0.981692,-256.13,163.936)">
		<path
			d="M2432.89,2509.32c-2.073,1.106 -4.283,1.658 -6.632,1.658c-3.454,0 -6.252,-1.52 -8.394,-4.559c-2.141,-3.04 -3.212,-7.116 -3.212,-12.228c0,-2.349 0.484,-6.252 1.451,-11.71c0.967,-5.457 2.072,-9.982 3.316,-13.575c0.138,-0.276 0.345,-0.829 0.621,-1.658c0.277,-0.829 0.38,-1.416 0.311,-1.761c-0.069,-0.346 -0.241,-0.518 -0.518,-0.518c-0.691,0 -1.934,0.898 -3.73,2.694c-3.869,3.316 -8.014,7.495 -12.435,12.539c-4.422,5.043 -8.083,9.878 -10.985,14.507c-2.901,4.629 -4.352,7.841 -4.352,9.637c0,1.52 -0.587,2.694 -1.761,3.523c-1.175,0.829 -2.522,1.244 -4.042,1.244c-0.967,0 -1.865,-0.207 -2.694,-0.622c-2.073,-1.243 -3.489,-2.625 -4.249,-4.145c-0.76,-1.52 -1.14,-3.73 -1.14,-6.632c0,-2.349 0.069,-4.214 0.208,-5.596c0.552,-9.533 1.554,-17.927 3.005,-25.18c1.451,-7.254 4.248,-17.582 8.393,-30.984c0.139,-0.415 1.451,-3.938 3.938,-10.57c4.283,-12.159 6.701,-18.791 7.254,-19.896c0.967,-0.967 2.383,-3.973 4.249,-9.016c1.865,-5.043 2.797,-8.117 2.797,-9.222c0,-2.073 0.691,-3.8 2.073,-5.182l2.072,-2.072c1.244,0 2.695,0.518 4.353,1.554c1.658,1.037 2.694,2.246 3.108,3.627c0.968,1.796 1.451,3.731 1.451,5.803c0,1.935 -0.587,4.318 -1.761,7.15c-1.175,2.833 -3.144,6.943 -5.907,12.332c-4.007,8.013 -7.737,17.202 -11.192,27.564c-1.519,4.421 -3.626,11.295 -6.321,20.622c-2.694,9.326 -4.041,14.749 -4.041,16.269c0,0.967 0.483,1.45 1.451,1.45c1.105,0 2.279,-0.829 3.523,-2.487c0.553,-1.105 3.178,-3.799 7.875,-8.082c0.553,-0.553 3.662,-3.42 9.327,-8.601c5.665,-5.182 9.74,-7.772 12.227,-7.772c1.658,0 3.282,0.622 4.871,1.865c1.589,1.244 2.66,2.694 3.212,4.352c0.553,0.553 0.967,1.106 1.244,1.658c0.276,0.553 0.552,0.968 0.829,1.244c0.276,0.276 0.414,1.105 0.414,2.487c0,4.836 -1.52,11.813 -4.559,20.932c-2.349,9.119 -3.524,14.577 -3.524,16.373c0,1.243 0.346,1.865 1.037,1.865c0.414,-0.276 1.243,-0.76 2.487,-1.451c1.243,-0.69 2.694,-1.519 4.352,-2.487c4.698,-3.177 8.843,-4.766 12.435,-4.766c1.658,0 2.487,0.552 2.487,1.658c0,0.276 -0.207,0.76 -0.622,1.45c-0.414,0.691 -0.621,1.244 -0.621,1.658l0,1.037c0,0.691 -1.866,2.763 -5.596,6.217c-3.731,3.454 -6.425,5.389 -8.083,5.803Z"
			style="fill:var(--text);" />
		<path
			d="M2583.56,2515.33c-0.967,0.552 -2.245,0.345 -3.834,-0.622c-1.589,-0.967 -3.143,-2.418 -4.663,-4.353c-1.106,-1.796 -1.762,-3.661 -1.969,-5.595c-0.207,-1.935 -0.311,-5.941 -0.311,-12.021c0,-1.381 -0.276,-2.072 -0.829,-2.072c-0.414,0 -1.382,0.656 -2.901,1.969c-1.52,1.312 -3.386,3.074 -5.596,5.284c-3.593,3.455 -6.909,6.149 -9.948,8.083c-3.04,1.935 -5.527,2.833 -7.461,2.694c-1.52,0 -3.144,-1.036 -4.871,-3.108c-1.727,-2.073 -3.074,-4.491 -4.041,-7.254c-0.415,-1.658 -0.622,-3.592 -0.622,-5.803c0,-5.803 1.209,-12.85 3.627,-21.14c2.418,-8.29 5.25,-15.44 8.497,-21.45c3.247,-6.01 6.114,-9.015 8.601,-9.015c2.073,0 4.007,2.279 5.803,6.839c0.415,0.829 0.622,1.52 0.622,2.072c0,0.968 -0.553,1.935 -1.658,2.902c-2.073,2.625 -4.49,7.323 -7.254,14.093c-2.763,6.77 -4.939,13.057 -6.528,18.86c-1.589,5.803 -1.9,8.704 -0.933,8.704c1.935,0 4.214,-0.76 6.839,-2.28c2.626,-1.519 5.251,-3.523 7.876,-6.01c2.625,-2.625 4.974,-5.423 7.047,-8.393c2.072,-2.971 4.628,-7.012 7.668,-12.125c5.803,-9.257 8.981,-14.645 9.533,-16.165c2.073,-3.869 3.558,-6.39 4.456,-7.565c0.898,-1.174 2.038,-1.969 3.42,-2.383l2.901,0c0.829,0.138 1.796,0.76 2.902,1.865c0.967,0.415 1.554,0.864 1.761,1.347c0.208,0.484 0.311,1.14 0.311,1.969l-3.316,7.668l-1.865,4.353c-0.138,0.552 -0.898,2.141 -2.28,4.766c-3.178,7.047 -5.595,12.712 -7.253,16.995c-1.658,4.283 -2.902,8.704 -3.731,13.264c-0.138,0.691 -0.207,1.865 -0.207,3.523c0,4.145 0.414,7.047 1.243,8.705c1.244,2.487 2.487,4.283 3.731,5.388c0.691,0.553 1.036,1.106 1.036,1.658c0,0.967 -0.794,1.935 -2.383,2.902c-1.589,0.967 -2.729,1.451 -3.42,1.451Z"
			style="fill:var(--text);" />
		<path
			d="M2637.03,2555.33c-2.073,0.829 -4.284,1.243 -6.632,1.243c-3.316,0 -6.667,-0.76 -10.052,-2.279c-3.385,-1.52 -6.39,-3.593 -9.015,-6.218c-1.52,-1.382 -2.971,-3.834 -4.353,-7.357c-1.381,-3.524 -1.658,-5.492 -0.829,-5.907c0.553,-0.276 1.106,-0.414 1.658,-0.414c1.106,0 2.176,0.207 3.213,0.621c1.036,0.415 1.554,0.898 1.554,1.451c1.105,0.967 2.66,2.142 4.663,3.523c2.004,1.382 3.489,2.142 4.456,2.28c2.487,0.829 4.421,1.244 5.803,1.244c1.52,0 2.971,-0.484 4.352,-1.451c2.073,-1.796 3.765,-4.042 5.078,-6.736c1.313,-2.694 2.66,-6.597 4.041,-11.709l0.622,-2.695c3.592,-16.165 6.01,-26.182 7.254,-30.051c0.553,-2.211 0.829,-4.007 0.829,-5.389c0,-1.105 -0.207,-1.658 -0.622,-1.658c-0.276,0 -0.76,0.415 -1.451,1.244c-1.243,0.414 -2.97,1.174 -5.181,2.28c-4.698,2.349 -7.737,3.661 -9.119,3.937l-4.559,0.208c-0.553,0.276 -1.175,0.414 -1.866,0.414c-1.519,0 -3.385,-0.449 -5.595,-1.347c-2.211,-0.898 -4.214,-2.038 -6.011,-3.42c-1.934,-2.487 -3.074,-4.214 -3.419,-5.181c-0.346,-0.967 -0.518,-3.109 -0.518,-6.425c-0.139,-2.21 0.932,-5.423 3.212,-9.637c2.28,-4.214 5.078,-8.186 8.394,-11.917c4.283,-4.283 9.879,-8.29 16.787,-12.02c6.908,-3.731 12.366,-5.527 16.373,-5.389c0.552,0.139 1.623,0.277 3.212,0.415c1.589,0.138 3.212,0.829 4.87,2.072c1.797,0.968 3.109,2.004 3.938,3.109c0.829,1.105 2.004,3.247 3.523,6.425c1.658,4.283 2.487,8.497 2.487,12.642c0,4.283 -1.036,7.461 -3.108,9.534c-0.415,0 -1.037,0.138 -1.866,0.414c-0.829,0.276 -1.519,0.415 -2.072,0.415c-0.415,0 -0.933,0.483 -1.554,1.45c-0.622,0.968 -1.002,2.073 -1.14,3.316c-0.277,1.797 -0.691,3.386 -1.244,4.767c-0.691,1.658 -1.036,2.625 -1.036,2.902c0,0.414 -0.104,0.794 -0.311,1.14c-0.207,0.345 -0.38,0.656 -0.518,0.932c-1.105,1.935 -1.658,3.869 -1.658,5.803l-0.829,2.28c-1.105,3.592 -1.658,5.527 -1.658,5.803l-0.829,4.145c-0.276,0.691 -0.691,1.831 -1.244,3.42c-0.552,1.589 -1.105,4.732 -1.658,9.43c-5.112,21.83 -10.569,34.61 -16.372,38.341Zm-14.301,-75.232c2.073,0.829 4.145,1.243 6.218,1.243c5.25,0 11.33,-2.763 18.238,-8.29c6.494,-4.835 10.708,-10.777 12.642,-17.823c0.553,-1.244 0.829,-2.418 0.829,-3.523c0,-1.52 -0.967,-2.349 -2.901,-2.487c-0.415,-0.139 -1.106,-0.208 -2.073,-0.208c-4.836,0 -10.777,2.28 -17.823,6.84c-0.829,1.243 -1.969,2.383 -3.42,3.419c-1.451,1.037 -2.383,1.693 -2.798,1.969c-0.276,0.829 -0.829,1.52 -1.658,2.073c-2.211,1.796 -4.214,4.835 -6.01,9.119c-1.796,4.283 -2.211,6.839 -1.244,7.668Z"
			style="fill:var(--text);" />
		<path
			d="M2807.18,2515.33c-1.934,-0.553 -3.523,-1.175 -4.767,-1.866c-1.243,-0.691 -2.901,-2.003 -4.974,-3.938c-2.487,-3.316 -4.11,-6.39 -4.87,-9.222c-0.76,-2.833 -1.14,-7.358 -1.14,-13.575c0,-3.316 1.865,-12.435 5.596,-27.357c-0.276,0.967 0.207,-1.036 1.451,-6.01c0.414,-1.52 -0.138,-2.487 -1.658,-2.902c-1.52,-0.414 -3.662,-0.622 -6.425,-0.622c-2.349,0 -3.731,-0.138 -4.145,-0.414c-0.415,-0.138 -0.656,-0.346 -0.725,-0.622c-0.07,-0.276 -0.104,-0.483 -0.104,-0.622c0,-0.69 -0.276,-1.519 -0.829,-2.487c-0.138,-0.138 -0.207,-0.345 -0.207,-0.621c0,-0.691 0.38,-1.451 1.14,-2.28c0.759,-0.829 1.692,-1.313 2.797,-1.451c0.691,-0.138 2.28,-0.345 4.767,-0.622c2.487,-0.276 4.836,-0.829 7.047,-1.658c2.21,-0.829 3.937,-2.003 5.181,-3.523c1.796,-4.559 4.076,-9.706 6.839,-15.44c2.764,-5.734 4.629,-9.154 5.596,-10.259c2.211,-1.105 3.731,-1.658 4.56,-1.658c0.829,0 1.519,0.276 2.072,0.829c0.553,0.553 1.313,1.52 2.28,2.902c0.138,0.276 0.483,0.759 1.036,1.45c0.553,0.691 0.829,1.382 0.829,2.073c0,1.105 -0.518,2.763 -1.554,4.974c-1.037,2.21 -3.075,6.079 -6.114,11.606l-2.694,5.181c0.414,0.138 1.381,0.207 2.901,0.207c1.52,0 2.763,-0.069 3.731,-0.207c3.039,-0.553 5.872,-0.829 8.497,-0.829c1.381,0 2.349,0.069 2.901,0.207c3.178,0 5.492,0.588 6.943,1.762c1.451,1.174 2.314,3.143 2.591,5.907c0.276,1.519 0,2.418 -0.829,2.694c-0.829,0.276 -3.178,0.414 -7.047,0.414c-16.027,0.691 -24.11,1.313 -24.248,1.866c-0.553,0.414 -1.589,2.832 -3.109,7.253c-1.52,4.422 -2.832,8.636 -3.938,12.643c-1.796,8.29 -2.694,15.613 -2.694,21.968c0,5.803 0.829,9.672 2.487,11.606c0.691,0.691 2.004,1.036 3.938,1.036c1.934,0 4.041,-0.379 6.321,-1.139c2.28,-0.76 4.18,-1.762 5.7,-3.006c2.487,-2.072 4.559,-3.108 6.217,-3.108c0.829,0 1.485,0.242 1.969,0.725c0.483,0.484 0.725,1.071 0.725,1.762c0,1.52 -0.829,3.454 -2.487,5.803c-2.072,3.178 -4.836,5.803 -8.29,7.875c-3.454,2.073 -6.77,3.109 -9.948,3.109c-1.52,0 -2.625,-0.138 -3.316,-0.414Z"
			style="fill:var(--text);" /><text x="2278.28px" y="2515.74px"
			style="font-family:'Caveat-Regular', 'Caveat';font-size:207.25px;fill:var(--text);">t<tspan
				x="2440.97px 2664.39px " y="2515.74px 2515.74px ">oh</tspan></text></g>
	<g transform="matrix(0.956534,0.291621,-0.291621,0.956534,-122.299,-396.724)">
		<path
			d="M2977.86,486.353c-2.073,1.105 -4.283,1.658 -6.632,1.658c-3.454,0 -6.252,-1.52 -8.394,-4.56c-2.141,-3.039 -3.212,-7.115 -3.212,-12.227c0,-2.349 0.483,-6.252 1.45,-11.71c0.968,-5.458 2.073,-9.983 3.316,-13.575c0.139,-0.276 0.346,-0.829 0.622,-1.658c0.277,-0.829 0.38,-1.416 0.311,-1.761c-0.069,-0.346 -0.242,-0.519 -0.518,-0.519c-0.691,0 -1.934,0.898 -3.731,2.695c-3.868,3.316 -8.013,7.495 -12.435,12.538c-4.421,5.043 -8.082,9.879 -10.984,14.508c-2.901,4.628 -4.352,7.841 -4.352,9.637c0,1.52 -0.587,2.694 -1.762,3.523c-1.174,0.829 -2.521,1.244 -4.041,1.244c-0.967,0 -1.865,-0.208 -2.694,-0.622c-2.073,-1.244 -3.489,-2.625 -4.249,-4.145c-0.76,-1.52 -1.14,-3.731 -1.14,-6.632c0,-2.349 0.069,-4.214 0.207,-5.596c0.553,-9.533 1.555,-17.927 3.006,-25.181c1.45,-7.254 4.248,-17.581 8.393,-30.984c0.138,-0.414 1.451,-3.937 3.938,-10.569c4.283,-12.159 6.701,-18.791 7.254,-19.896c0.967,-0.968 2.383,-3.973 4.248,-9.016c1.866,-5.043 2.798,-8.117 2.798,-9.223c0,-2.072 0.691,-3.799 2.073,-5.181l2.072,-2.072c1.244,0 2.694,0.518 4.352,1.554c1.658,1.036 2.695,2.245 3.109,3.627c0.967,1.796 1.451,3.73 1.451,5.803c0,1.934 -0.587,4.318 -1.762,7.15c-1.174,2.833 -3.143,6.943 -5.906,12.332c-4.007,8.013 -7.738,17.201 -11.192,27.564c-1.52,4.421 -3.627,11.295 -6.321,20.621c-2.694,9.327 -4.041,14.75 -4.041,16.269c0,0.968 0.483,1.451 1.45,1.451c1.106,0 2.28,-0.829 3.524,-2.487c0.552,-1.105 3.178,-3.799 7.875,-8.083c0.553,-0.552 3.662,-3.419 9.326,-8.601c5.665,-5.181 9.741,-7.771 12.228,-7.771c1.658,0 3.282,0.621 4.871,1.865c1.589,1.243 2.659,2.694 3.212,4.352c0.553,0.553 0.967,1.105 1.244,1.658c0.276,0.553 0.552,0.967 0.829,1.244c0.276,0.276 0.414,1.105 0.414,2.487c0,4.835 -1.52,11.813 -4.56,20.932c-2.348,9.119 -3.523,14.577 -3.523,16.373c0,1.243 0.346,1.865 1.036,1.865c0.415,-0.276 1.244,-0.76 2.487,-1.451c1.244,-0.691 2.695,-1.52 4.353,-2.487c4.697,-3.178 8.842,-4.767 12.435,-4.767c1.658,0 2.487,0.553 2.487,1.658c0,0.277 -0.207,0.76 -0.622,1.451c-0.414,0.691 -0.622,1.244 -0.622,1.658l0,1.036c0,0.691 -1.865,2.764 -5.595,6.218c-3.731,3.454 -6.425,5.388 -8.083,5.803Z"
			style="fill:var(--text);" />
		<path
			d="M3128.53,492.363c-0.967,0.553 -2.245,0.346 -3.834,-0.622c-1.589,-0.967 -3.144,-2.417 -4.663,-4.352c-1.106,-1.796 -1.762,-3.661 -1.969,-5.596c-0.208,-1.934 -0.311,-5.941 -0.311,-12.02c0,-1.382 -0.277,-2.073 -0.829,-2.073c-0.415,0 -1.382,0.657 -2.902,1.969c-1.52,1.313 -3.385,3.075 -5.595,5.285c-3.593,3.454 -6.909,6.149 -9.949,8.083c-3.039,1.934 -5.526,2.832 -7.461,2.694c-1.519,0 -3.143,-1.036 -4.87,-3.109c-1.727,-2.072 -3.074,-4.49 -4.041,-7.253c-0.415,-1.658 -0.622,-3.593 -0.622,-5.803c0,-5.803 1.209,-12.85 3.627,-21.14c2.418,-8.29 5.25,-15.44 8.497,-21.45c3.247,-6.011 6.114,-9.016 8.601,-9.016c2.073,0 4.007,2.28 5.803,6.84c0.415,0.829 0.622,1.519 0.622,2.072c0,0.967 -0.553,1.934 -1.658,2.902c-2.073,2.625 -4.491,7.322 -7.254,14.093c-2.763,6.77 -4.939,13.056 -6.528,18.859c-1.589,5.803 -1.9,8.705 -0.933,8.705c1.934,0 4.214,-0.76 6.839,-2.28c2.625,-1.52 5.251,-3.523 7.876,-6.01c2.625,-2.625 4.974,-5.423 7.046,-8.394c2.073,-2.97 4.629,-7.012 7.669,-12.124c5.803,-9.257 8.98,-14.646 9.533,-16.165c2.073,-3.869 3.558,-6.391 4.456,-7.565c0.898,-1.174 2.038,-1.969 3.42,-2.383l2.901,0c0.829,0.138 1.796,0.759 2.902,1.865c0.967,0.414 1.554,0.863 1.761,1.347c0.207,0.484 0.311,1.14 0.311,1.969l-3.316,7.668l-1.865,4.352c-0.138,0.553 -0.898,2.142 -2.28,4.767c-3.178,7.047 -5.596,12.711 -7.254,16.995c-1.658,4.283 -2.901,8.704 -3.73,13.264c-0.138,0.691 -0.207,1.865 -0.207,3.523c0,4.145 0.414,7.046 1.243,8.704c1.244,2.487 2.487,4.284 3.731,5.389c0.69,0.553 1.036,1.105 1.036,1.658c0,0.967 -0.795,1.934 -2.384,2.901c-1.588,0.968 -2.728,1.451 -3.419,1.451Z"
			style="fill:var(--text);" />
		<path
			d="M3182,532.363c-2.072,0.829 -4.283,1.243 -6.632,1.243c-3.316,0 -6.666,-0.76 -10.051,-2.28c-3.385,-1.52 -6.39,-3.592 -9.016,-6.217c-1.519,-1.382 -2.97,-3.834 -4.352,-7.358c-1.382,-3.523 -1.658,-5.492 -0.829,-5.906c0.553,-0.277 1.105,-0.415 1.658,-0.415c1.105,0 2.176,0.208 3.212,0.622c1.037,0.415 1.555,0.898 1.555,1.451c1.105,0.967 2.66,2.141 4.663,3.523c2.003,1.382 3.489,2.142 4.456,2.28c2.487,0.829 4.421,1.243 5.803,1.243c1.52,0 2.97,-0.483 4.352,-1.45c2.073,-1.797 3.765,-4.042 5.078,-6.736c1.312,-2.694 2.66,-6.598 4.041,-11.71l0.622,-2.694c3.592,-16.166 6.01,-26.183 7.254,-30.051c0.552,-2.211 0.829,-4.007 0.829,-5.389c0,-1.105 -0.208,-1.658 -0.622,-1.658c-0.276,0 -0.76,0.415 -1.451,1.244c-1.243,0.414 -2.97,1.174 -5.181,2.279c-4.698,2.349 -7.737,3.662 -9.119,3.938l-4.56,0.207c-0.552,0.277 -1.174,0.415 -1.865,0.415c-1.52,0 -3.385,-0.449 -5.596,-1.347c-2.21,-0.898 -4.214,-2.038 -6.01,-3.42c-1.934,-2.487 -3.074,-4.214 -3.42,-5.181c-0.345,-0.967 -0.518,-3.109 -0.518,-6.425c-0.138,-2.211 0.933,-5.423 3.213,-9.637c2.279,-4.214 5.077,-8.186 8.393,-11.917c4.284,-4.283 9.879,-8.29 16.788,-12.02c6.908,-3.731 12.366,-5.527 16.372,-5.389c0.553,0.138 1.624,0.276 3.213,0.415c1.589,0.138 3.212,0.829 4.87,2.072c1.796,0.967 3.109,2.004 3.938,3.109c0.829,1.105 2.003,3.247 3.523,6.425c1.658,4.283 2.487,8.497 2.487,12.642c0,4.283 -1.036,7.461 -3.109,9.533c-0.414,0 -1.036,0.139 -1.865,0.415c-0.829,0.276 -1.52,0.414 -2.072,0.414c-0.415,0 -0.933,0.484 -1.555,1.451c-0.621,0.967 -1.001,2.073 -1.14,3.316c-0.276,1.796 -0.69,3.385 -1.243,4.767c-0.691,1.658 -1.036,2.625 -1.036,2.901c0,0.415 -0.104,0.795 -0.311,1.14c-0.207,0.346 -0.38,0.657 -0.518,0.933c-1.106,1.934 -1.658,3.869 -1.658,5.803l-0.829,2.28c-1.106,3.592 -1.658,5.526 -1.658,5.803l-0.829,4.145c-0.277,0.691 -0.691,1.83 -1.244,3.419c-0.552,1.589 -1.105,4.733 -1.658,9.43c-5.112,21.831 -10.57,34.611 -16.373,38.342Zm-14.3,-75.232c2.073,0.829 4.145,1.243 6.218,1.243c5.25,0 11.329,-2.763 18.238,-8.29c6.494,-4.836 10.708,-10.777 12.642,-17.823c0.553,-1.244 0.829,-2.418 0.829,-3.524c0,-1.519 -0.967,-2.348 -2.902,-2.487c-0.414,-0.138 -1.105,-0.207 -2.072,-0.207c-4.836,0 -10.777,2.28 -17.824,6.839c-0.829,1.244 -1.968,2.384 -3.419,3.42c-1.451,1.036 -2.384,1.693 -2.798,1.969c-0.276,0.829 -0.829,1.52 -1.658,2.072c-2.211,1.797 -4.214,4.836 -6.01,9.119c-1.797,4.284 -2.211,6.84 -1.244,7.669Z"
			style="fill:var(--text);" />
		<path
			d="M3352.16,492.363c-1.934,-0.552 -3.523,-1.174 -4.767,-1.865c-1.243,-0.691 -2.901,-2.003 -4.974,-3.938c-2.487,-3.316 -4.11,-6.39 -4.87,-9.222c-0.76,-2.833 -1.14,-7.358 -1.14,-13.575c0,-3.316 1.865,-12.435 5.596,-27.357c-0.277,0.967 0.207,-1.037 1.45,-6.011c0.415,-1.519 -0.138,-2.487 -1.658,-2.901c-1.519,-0.415 -3.661,-0.622 -6.424,-0.622c-2.349,0 -3.731,-0.138 -4.145,-0.414c-0.415,-0.139 -0.657,-0.346 -0.726,-0.622c-0.069,-0.276 -0.103,-0.484 -0.103,-0.622c0,-0.691 -0.277,-1.52 -0.829,-2.487c-0.138,-0.138 -0.208,-0.345 -0.208,-0.622c0,-0.69 0.38,-1.45 1.14,-2.279c0.76,-0.829 1.693,-1.313 2.798,-1.451c0.691,-0.138 2.28,-0.346 4.767,-0.622c2.487,-0.276 4.836,-0.829 7.046,-1.658c2.211,-0.829 3.938,-2.003 5.182,-3.523c1.796,-4.56 4.076,-9.706 6.839,-15.44c2.763,-5.734 4.629,-9.154 5.596,-10.259c2.21,-1.106 3.73,-1.658 4.559,-1.658c0.829,0 1.52,0.276 2.073,0.829c0.552,0.552 1.312,1.52 2.28,2.901c0.138,0.277 0.483,0.76 1.036,1.451c0.552,0.691 0.829,1.382 0.829,2.073c0,1.105 -0.518,2.763 -1.555,4.974c-1.036,2.21 -3.074,6.079 -6.113,11.606l-2.695,5.181c0.415,0.138 1.382,0.207 2.902,0.207c1.52,0 2.763,-0.069 3.73,-0.207c3.04,-0.553 5.872,-0.829 8.498,-0.829c1.381,0 2.348,0.069 2.901,0.207c3.178,0 5.492,0.587 6.943,1.762c1.451,1.174 2.314,3.143 2.591,5.906c0.276,1.52 0,2.418 -0.829,2.695c-0.829,0.276 -3.178,0.414 -7.047,0.414c-16.027,0.691 -24.11,1.313 -24.248,1.865c-0.553,0.415 -1.589,2.833 -3.109,7.254c-1.52,4.421 -2.832,8.636 -3.938,12.642c-1.796,8.29 -2.694,15.613 -2.694,21.969c0,5.803 0.829,9.672 2.487,11.606c0.691,0.691 2.003,1.036 3.938,1.036c1.934,0 4.041,-0.38 6.321,-1.14c2.28,-0.76 4.179,-1.761 5.699,-3.005c2.487,-2.072 4.56,-3.109 6.218,-3.109c0.829,0 1.485,0.242 1.969,0.726c0.483,0.483 0.725,1.071 0.725,1.761c0,1.52 -0.829,3.455 -2.487,5.803c-2.072,3.178 -4.836,5.803 -8.29,7.876c-3.454,2.072 -6.77,3.109 -9.948,3.109c-1.52,0 -2.625,-0.138 -3.316,-0.415Z"
			style="fill:var(--text);" /><text x="2823.25px" y="492.778px"
			style="font-family:'Caveat-Regular', 'Caveat';font-size:207.25px;fill:var(--text);">t<tspan
				x="2985.95px 3209.36px " y="492.778px 492.778px ">oh</tspan></text></g>
	<path
		d="M1403.55,1351.79c-4.698,0 -8.774,-0.967 -12.228,-2.901c-3.454,-1.935 -5.734,-4.56 -6.839,-7.876c-0.968,-2.487 -1.451,-3.868 -1.451,-4.145c0,-0.829 0.483,-1.451 1.451,-1.865c0.967,0 2.107,0.414 3.419,1.243c1.313,0.829 2.384,1.382 3.213,1.658c2.072,1.935 4.905,2.902 8.497,2.902c2.763,0 5.285,-0.553 7.565,-1.658c2.279,-1.105 3.557,-2.418 3.834,-3.938c0,-0.691 -0.691,-3.109 -2.073,-7.254c-3.454,-4.974 -6.114,-10.051 -7.979,-15.232c-1.865,-5.182 -2.798,-9.568 -2.798,-13.161c0,-2.625 0.76,-5.319 2.28,-8.083c1.52,-2.763 3.592,-5.112 6.217,-7.046c3.455,-3.592 7.634,-6.839 12.539,-9.741c4.905,-2.901 9.361,-4.905 13.368,-6.01c1.658,0 3.696,0.207 6.114,0.622c2.418,0.414 4.11,0.898 5.077,1.45c1.52,0.553 2.971,2.073 4.353,4.56c1.381,2.487 2.072,4.836 2.072,7.046c0,2.211 -1.174,5.251 -3.523,9.119c-0.277,0.968 -0.829,2.28 -1.658,3.938c-0.829,1.658 -1.244,2.694 -1.244,3.109c-0.552,1.382 -1.45,2.072 -2.694,2.072c-1.243,0 -2.452,-0.587 -3.627,-1.761c-1.174,-1.175 -2.107,-2.591 -2.798,-4.249c-0.414,-1.658 -0.621,-3.109 -0.621,-4.352c0,-1.658 0.552,-3.316 1.658,-4.974c1.519,-1.52 2.279,-2.556 2.279,-3.109c0,-0.553 -0.76,-0.829 -2.279,-0.829c-1.658,0 -4.836,1.313 -9.534,3.938c-4.698,2.625 -8.428,5.388 -11.192,8.29c-2.487,2.349 -4.006,4.11 -4.559,5.285c-0.553,1.174 -0.829,2.936 -0.829,5.285c0,2.072 0.449,4.525 1.347,7.357c0.898,2.832 1.831,4.732 2.798,5.699c0.276,0.553 0.864,1.728 1.762,3.524c0.898,1.796 1.968,3.523 3.212,5.181c2.763,6.217 4.145,11.053 4.145,14.507c0,4.007 -1.554,6.909 -4.663,8.705c-3.109,1.796 -7.979,2.694 -14.611,2.694Z"
		style="fill:var(--text);" />
	<path
		d="M1511.11,1353.87c-0.415,0.414 -1.52,0.622 -3.316,0.622c-3.04,0 -5.665,-0.553 -7.876,-1.658c-0.414,-0.277 -1.209,-0.968 -2.383,-2.073c-1.175,-1.105 -2.038,-2.072 -2.591,-2.901l-7.668,-8.083c-0.691,-1.382 -3.385,-4.422 -8.083,-9.119c-1.52,-1.935 -2.936,-3.489 -4.249,-4.663c-1.312,-1.175 -2.245,-1.762 -2.797,-1.762l-6.632,22.798c-1.106,1.934 -2.004,3.246 -2.695,3.937c-0.691,0.691 -1.52,1.037 -2.487,1.037c-1.658,0 -3.039,-0.726 -4.145,-2.177c-1.105,-1.45 -1.658,-3.419 -1.658,-5.906c-1.105,-4.007 2.556,-16.511 10.985,-37.513c0.414,-1.934 1.105,-4.179 2.072,-6.735c0.967,-2.556 1.658,-4.387 2.073,-5.492c2.21,-7.047 6.01,-16.857 11.398,-29.43l3.731,-8.497c2.349,-4.836 4.905,-9.879 7.668,-15.129c7.323,-13.541 11.952,-21.416 13.886,-23.627c1.105,-1.105 2.418,-1.658 3.938,-1.658c1.519,0 2.832,0.553 3.937,1.658c1.382,1.658 2.073,3.109 2.073,4.352c0,2.349 -1.727,6.287 -5.181,11.814c-1.52,3.177 -2.902,5.803 -4.145,7.875c-1.106,1.52 -2.418,3.731 -3.938,6.632c-0.967,2.763 -2.004,4.145 -3.109,4.145c-0.138,0.691 -0.38,1.589 -0.725,2.694c-0.346,1.106 -0.795,2.211 -1.347,3.316c-0.415,1.382 -1.106,3.04 -2.073,4.974c-0.967,1.935 -1.589,3.316 -1.865,4.145c-0.276,0.553 -0.656,1.382 -1.14,2.487c-0.484,1.106 -1.209,2.487 -2.176,4.145c-3.869,8.014 -6.01,12.988 -6.425,14.922c0,0.139 0.069,0.208 0.207,0.208c0.277,0 0.829,-0.277 1.658,-0.829c0.829,-0.553 1.52,-1.037 2.073,-1.451c3.316,-2.625 7.115,-5.181 11.399,-7.668c4.283,-2.487 7.599,-3.938 9.948,-4.353c1.796,-0.552 3.454,-0.829 4.974,-0.829c1.52,0 2.901,0.277 4.145,0.829c3.178,1.935 5.25,5.32 6.217,10.156c0,2.21 -1.071,5.768 -3.212,10.673c-2.142,4.905 -4.111,8.117 -5.907,9.637c-0.967,0.415 -1.692,0.795 -2.176,1.14c-0.484,0.345 -0.794,0.587 -0.933,0.725c0,0.553 -0.276,1.278 -0.829,2.177c-0.552,0.898 -1.312,1.554 -2.279,1.968c-1.935,1.935 -2.902,3.247 -2.902,3.938l0,1.036c-0.414,0 -1.278,0.484 -2.59,1.451c-1.313,0.967 -2.522,1.865 -3.627,2.694c-1.52,1.52 -2.729,2.418 -3.627,2.695c-0.898,0.276 -1.624,0.483 -2.176,0.621c-0.277,0.277 -0.864,0.588 -1.762,0.933c-0.898,0.346 -1.347,0.725 -1.347,1.14c0,0.967 2.245,3.972 6.736,9.015c4.49,5.043 7.564,8.118 9.222,9.223c1.382,0.691 2.418,1.762 3.109,3.212c0.691,1.451 1.036,2.867 1.036,4.249c0,0.691 -0.138,1.451 -0.414,2.28Zm-24.87,-36.684c2.348,-1.658 6.459,-4.939 12.331,-9.844c5.872,-4.905 9.499,-8.255 10.881,-10.052c0.829,-0.829 1.658,-2.176 2.487,-4.041c0.829,-1.865 1.243,-3.489 1.243,-4.87c0,-0.553 -0.138,-1.106 -0.414,-1.658c-0.277,-0.691 -4.214,0.898 -11.814,4.766c-4.283,2.487 -8.704,5.596 -13.264,9.327c-4.559,3.73 -7.806,7.184 -9.74,10.362c-0.415,1.382 0.069,2.798 1.45,4.249c1.382,1.451 2.971,2.176 4.767,2.176c0.967,0 1.658,-0.138 2.073,-0.415Z"
		style="fill:var(--text);" /><text x="1207.07px" y="1353.45px"
		style="font-family:'Caveat-Regular', 'Caveat';font-size:207.25px;fill:var(--text);">ta</text>
	<g transform="matrix(0.950629,-0.310328,0.310328,0.950629,-196.893,-450.042)">
		<path
			d="M237.174,1493.53c-4.698,0 -8.774,-0.967 -12.228,-2.902c-3.454,-1.934 -5.734,-4.559 -6.839,-7.875c-0.967,-2.487 -1.451,-3.869 -1.451,-4.145c0,-0.829 0.484,-1.451 1.451,-1.866c0.967,0 2.107,0.415 3.42,1.244c1.312,0.829 2.383,1.382 3.212,1.658c2.073,1.934 4.905,2.901 8.497,2.901c2.764,0 5.285,-0.552 7.565,-1.658c2.28,-1.105 3.558,-2.418 3.834,-3.937c0,-0.691 -0.691,-3.109 -2.072,-7.254c-3.455,-4.974 -6.114,-10.052 -7.98,-15.233c-1.865,-5.181 -2.797,-9.568 -2.797,-13.16c0,-2.626 0.759,-5.32 2.279,-8.083c1.52,-2.764 3.593,-5.112 6.218,-7.047c3.454,-3.592 7.634,-6.839 12.538,-9.74c4.905,-2.902 9.361,-4.905 13.368,-6.011c1.658,0 3.696,0.208 6.114,0.622c2.418,0.415 4.11,0.898 5.078,1.451c1.519,0.552 2.97,2.072 4.352,4.559c1.382,2.487 2.072,4.836 2.072,7.047c0,2.21 -1.174,5.25 -3.523,9.119c-0.276,0.967 -0.829,2.28 -1.658,3.938c-0.829,1.658 -1.243,2.694 -1.243,3.108c-0.553,1.382 -1.451,2.073 -2.695,2.073c-1.243,0 -2.452,-0.587 -3.626,-1.762c-1.175,-1.174 -2.108,-2.59 -2.798,-4.248c-0.415,-1.658 -0.622,-3.109 -0.622,-4.353c0,-1.658 0.553,-3.316 1.658,-4.974c1.52,-1.52 2.28,-2.556 2.28,-3.108c0,-0.553 -0.76,-0.829 -2.28,-0.829c-1.658,0 -4.836,1.312 -9.534,3.937c-4.697,2.625 -8.428,5.389 -11.191,8.29c-2.487,2.349 -4.007,4.111 -4.56,5.285c-0.552,1.175 -0.829,2.936 -0.829,5.285c0,2.073 0.449,4.525 1.347,7.357c0.899,2.833 1.831,4.733 2.798,5.7c0.277,0.553 0.864,1.727 1.762,3.523c0.898,1.796 1.969,3.523 3.212,5.181c2.764,6.218 4.145,11.054 4.145,14.508c0,4.007 -1.554,6.908 -4.663,8.704c-3.109,1.797 -7.979,2.695 -14.611,2.695Z"
			style="fill:var(--text);" />
		<path
			d="M344.737,1495.6c-0.414,0.415 -1.52,0.622 -3.316,0.622c-3.04,0 -5.665,-0.553 -7.875,-1.658c-0.415,-0.276 -1.209,-0.967 -2.384,-2.073c-1.174,-1.105 -2.038,-2.072 -2.59,-2.901l-7.669,-8.083c-0.691,-1.381 -3.385,-4.421 -8.083,-9.119c-1.519,-1.934 -2.936,-3.489 -4.248,-4.663c-1.313,-1.174 -2.245,-1.762 -2.798,-1.762l-6.632,22.798c-1.105,1.934 -2.003,3.247 -2.694,3.938c-0.691,0.691 -1.52,1.036 -2.487,1.036c-1.658,0 -3.04,-0.725 -4.145,-2.176c-1.106,-1.451 -1.658,-3.42 -1.658,-5.907c-1.106,-4.007 2.556,-16.511 10.984,-37.512c0.414,-1.934 1.105,-4.18 2.072,-6.736c0.968,-2.556 1.658,-4.387 2.073,-5.492c2.211,-7.046 6.01,-16.856 11.399,-29.429l3.73,-8.498c2.349,-4.836 4.905,-9.879 7.668,-15.129c7.323,-13.54 11.952,-21.416 13.886,-23.627c1.106,-1.105 2.418,-1.658 3.938,-1.658c1.52,0 2.832,0.553 3.938,1.658c1.381,1.658 2.072,3.109 2.072,4.353c0,2.349 -1.727,6.286 -5.181,11.813c-1.52,3.178 -2.901,5.803 -4.145,7.875c-1.105,1.52 -2.418,3.731 -3.938,6.632c-0.967,2.764 -2.003,4.145 -3.108,4.145c-0.139,0.691 -0.38,1.589 -0.726,2.695c-0.345,1.105 -0.794,2.21 -1.347,3.316c-0.414,1.381 -1.105,3.039 -2.072,4.974c-0.968,1.934 -1.589,3.316 -1.866,4.145c-0.276,0.552 -0.656,1.381 -1.14,2.487c-0.483,1.105 -1.209,2.487 -2.176,4.145c-3.868,8.013 -6.01,12.987 -6.425,14.922c0,0.138 0.07,0.207 0.208,0.207c0.276,0 0.829,-0.276 1.658,-0.829c0.829,-0.553 1.52,-1.036 2.072,-1.451c3.316,-2.625 7.116,-5.181 11.399,-7.668c4.283,-2.487 7.599,-3.938 9.948,-4.352c1.796,-0.553 3.454,-0.829 4.974,-0.829c1.52,0 2.902,0.276 4.145,0.829c3.178,1.934 5.25,5.319 6.218,10.155c0,2.211 -1.071,5.769 -3.213,10.673c-2.141,4.905 -4.11,8.118 -5.906,9.638c-0.968,0.414 -1.693,0.794 -2.177,1.139c-0.483,0.346 -0.794,0.588 -0.932,0.726c0,0.553 -0.277,1.278 -0.829,2.176c-0.553,0.898 -1.313,1.554 -2.28,1.969c-1.934,1.934 -2.901,3.247 -2.901,3.938l0,1.036c-0.415,0 -1.279,0.483 -2.591,1.451c-1.313,0.967 -2.522,1.865 -3.627,2.694c-1.52,1.52 -2.729,2.418 -3.627,2.694c-0.898,0.276 -1.623,0.484 -2.176,0.622c-0.276,0.276 -0.864,0.587 -1.762,0.933c-0.898,0.345 -1.347,0.725 -1.347,1.139c0,0.968 2.245,3.973 6.736,9.016c4.49,5.043 7.565,8.117 9.223,9.222c1.381,0.691 2.417,1.762 3.108,3.213c0.691,1.451 1.037,2.867 1.037,4.248c0,0.691 -0.139,1.451 -0.415,2.28Zm-24.87,-36.683c2.349,-1.658 6.459,-4.94 12.331,-9.845c5.872,-4.904 9.499,-8.255 10.881,-10.051c0.829,-0.829 1.658,-2.176 2.487,-4.042c0.829,-1.865 1.244,-3.488 1.244,-4.87c0,-0.553 -0.139,-1.105 -0.415,-1.658c-0.276,-0.691 -4.214,0.898 -11.813,4.767c-4.283,2.487 -8.705,5.596 -13.264,9.326c-4.56,3.731 -7.807,7.185 -9.741,10.363c-0.415,1.381 0.069,2.797 1.451,4.248c1.381,1.451 2.97,2.176 4.766,2.176c0.968,0 1.658,-0.138 2.073,-0.414Z"
			style="fill:var(--text);" /><text x="40.701px" y="1495.18px"
			style="font-family:'Caveat-Regular', 'Caveat';font-size:207.25px;fill:var(--text);">ta</text></g>
	<path
		d="M1126.32,1592.03c-4.709,-17.576 -29.606,-23.863 -46.285,-21.428c-12.923,1.887 -25.126,7.533 -23.717,22.667c0.53,5.687 4.839,25.337 7.126,30.345c6.214,13.608 17.35,13.926 33.047,17.109c11.725,2.378 33.156,-36.278 29.829,-48.693"
		style="fill:none;stroke:var(--text);stroke-width:12.5px;stroke-linecap:round;stroke-miterlimit:1.5;" />
	<path
		d="M1403.55,1637.26c-4.698,0 -8.774,-0.967 -12.228,-2.901c-3.454,-1.935 -5.734,-4.56 -6.839,-7.876c-0.968,-2.487 -1.451,-3.869 -1.451,-4.145c0,-0.829 0.483,-1.451 1.451,-1.865c0.967,0 2.107,0.414 3.419,1.243c1.313,0.829 2.384,1.382 3.213,1.658c2.072,1.935 4.905,2.902 8.497,2.902c2.763,0 5.285,-0.553 7.565,-1.658c2.279,-1.106 3.557,-2.418 3.834,-3.938c0,-0.691 -0.691,-3.109 -2.073,-7.254c-3.454,-4.974 -6.114,-10.051 -7.979,-15.233c-1.865,-5.181 -2.798,-9.568 -2.798,-13.16c0,-2.625 0.76,-5.32 2.28,-8.083c1.52,-2.763 3.592,-5.112 6.217,-7.046c3.455,-3.593 7.634,-6.84 12.539,-9.741c4.905,-2.902 9.361,-4.905 13.368,-6.01c1.658,0 3.696,0.207 6.114,0.621c2.418,0.415 4.11,0.898 5.077,1.451c1.52,0.553 2.971,2.073 4.353,4.56c1.381,2.487 2.072,4.835 2.072,7.046c0,2.211 -1.174,5.25 -3.523,9.119c-0.277,0.967 -0.829,2.28 -1.658,3.938c-0.829,1.658 -1.244,2.694 -1.244,3.109c-0.552,1.381 -1.45,2.072 -2.694,2.072c-1.243,0 -2.452,-0.587 -3.627,-1.761c-1.174,-1.175 -2.107,-2.591 -2.798,-4.249c-0.414,-1.658 -0.621,-3.109 -0.621,-4.352c0,-1.658 0.552,-3.316 1.658,-4.974c1.519,-1.52 2.279,-2.556 2.279,-3.109c0,-0.553 -0.76,-0.829 -2.279,-0.829c-1.658,0 -4.836,1.312 -9.534,3.938c-4.698,2.625 -8.428,5.388 -11.192,8.29c-2.487,2.349 -4.006,4.11 -4.559,5.285c-0.553,1.174 -0.829,2.936 -0.829,5.284c0,2.073 0.449,4.525 1.347,7.358c0.898,2.832 1.831,4.732 2.798,5.699c0.276,0.553 0.864,1.727 1.762,3.523c0.898,1.797 1.968,3.524 3.212,5.182c2.763,6.217 4.145,11.053 4.145,14.507c0,4.007 -1.554,6.909 -4.663,8.705c-3.109,1.796 -7.979,2.694 -14.611,2.694Z"
		style="fill:var(--text);" />
	<path
		d="M1511.11,1639.33c-0.415,0.414 -1.52,0.621 -3.316,0.621c-3.04,0 -5.665,-0.552 -7.876,-1.658c-0.414,-0.276 -1.209,-0.967 -2.383,-2.072c-1.175,-1.106 -2.038,-2.073 -2.591,-2.902l-7.668,-8.082c-0.691,-1.382 -3.385,-4.422 -8.083,-9.12c-1.52,-1.934 -2.936,-3.488 -4.249,-4.663c-1.312,-1.174 -2.245,-1.761 -2.797,-1.761l-6.632,22.797c-1.106,1.935 -2.004,3.247 -2.695,3.938c-0.691,0.691 -1.52,1.036 -2.487,1.036c-1.658,0 -3.039,-0.725 -4.145,-2.176c-1.105,-1.451 -1.658,-3.419 -1.658,-5.906c-1.105,-4.007 2.556,-16.511 10.985,-37.513c0.414,-1.934 1.105,-4.179 2.072,-6.735c0.967,-2.557 1.658,-4.387 2.073,-5.493c2.21,-7.046 6.01,-16.856 11.398,-29.429l3.731,-8.497c2.349,-4.836 4.905,-9.879 7.668,-15.13c7.323,-13.54 11.952,-21.416 13.886,-23.626c1.105,-1.106 2.418,-1.658 3.938,-1.658c1.519,0 2.832,0.552 3.937,1.658c1.382,1.658 2.073,3.109 2.073,4.352c0,2.349 -1.727,6.287 -5.181,11.813c-1.52,3.178 -2.902,5.803 -4.145,7.876c-1.106,1.52 -2.418,3.73 -3.938,6.632c-0.967,2.763 -2.004,4.145 -3.109,4.145c-0.138,0.691 -0.38,1.589 -0.725,2.694c-0.346,1.105 -0.795,2.211 -1.347,3.316c-0.415,1.382 -1.106,3.04 -2.073,4.974c-0.967,1.934 -1.589,3.316 -1.865,4.145c-0.276,0.553 -0.656,1.382 -1.14,2.487c-0.484,1.105 -1.209,2.487 -2.176,4.145c-3.869,8.014 -6.01,12.988 -6.425,14.922c0,0.138 0.069,0.207 0.207,0.207c0.277,0 0.829,-0.276 1.658,-0.829c0.829,-0.552 1.52,-1.036 2.073,-1.45c3.316,-2.626 7.115,-5.182 11.399,-7.669c4.283,-2.487 7.599,-3.937 9.948,-4.352c1.796,-0.553 3.454,-0.829 4.974,-0.829c1.52,0 2.901,0.276 4.145,0.829c3.178,1.934 5.25,5.32 6.217,10.155c0,2.211 -1.071,5.769 -3.212,10.674c-2.142,4.905 -4.111,8.117 -5.907,9.637c-0.967,0.414 -1.692,0.794 -2.176,1.14c-0.484,0.345 -0.794,0.587 -0.933,0.725c0,0.553 -0.276,1.278 -0.829,2.176c-0.552,0.898 -1.312,1.555 -2.279,1.969c-1.935,1.935 -2.902,3.247 -2.902,3.938l0,1.036c-0.414,0 -1.278,0.484 -2.59,1.451c-1.313,0.967 -2.522,1.865 -3.627,2.694c-1.52,1.52 -2.729,2.418 -3.627,2.694c-0.898,0.277 -1.624,0.484 -2.176,0.622c-0.277,0.277 -0.864,0.587 -1.762,0.933c-0.898,0.345 -1.347,0.725 -1.347,1.14c0,0.967 2.245,3.972 6.736,9.015c4.49,5.043 7.564,8.117 9.222,9.223c1.382,0.691 2.418,1.761 3.109,3.212c0.691,1.451 1.036,2.867 1.036,4.249c0,0.691 -0.138,1.451 -0.414,2.28Zm-24.87,-36.684c2.348,-1.658 6.459,-4.939 12.331,-9.844c5.872,-4.905 9.499,-8.256 10.881,-10.052c0.829,-0.829 1.658,-2.176 2.487,-4.041c0.829,-1.865 1.243,-3.489 1.243,-4.871c0,-0.552 -0.138,-1.105 -0.414,-1.658c-0.277,-0.69 -4.214,0.898 -11.814,4.767c-4.283,2.487 -8.704,5.596 -13.264,9.326c-4.559,3.731 -7.806,7.185 -9.74,10.363c-0.415,1.382 0.069,2.798 1.45,4.249c1.382,1.45 2.971,2.176 4.767,2.176c0.967,0 1.658,-0.138 2.073,-0.415Z"
		style="fill:var(--text);" /><text x="1207.07px" y="1638.91px"
		style="font-family:'Caveat-Regular', 'Caveat';font-size:207.25px;fill:var(--text);">ta</text>
	<path
		d="M1099.4,1850.55c-17.575,-4.71 -41.63,15.022 -35.962,36.025c1.488,5.514 13.987,26.824 19.467,27.348c14.892,1.422 33.146,-1.191 43.75,-13.194c7.922,-8.966 0.208,-46.983 -12.207,-50.309"
		style="fill:none;stroke:var(--text);stroke-width:12.5px;stroke-linecap:round;stroke-miterlimit:1.5;" />
	<path
		d="M1403.55,1917.05c-4.698,0 -8.774,-0.967 -12.228,-2.902c-3.454,-1.934 -5.734,-4.559 -6.839,-7.875c-0.968,-2.487 -1.451,-3.869 -1.451,-4.145c0,-0.829 0.483,-1.451 1.451,-1.865c0.967,0 2.107,0.414 3.419,1.243c1.313,0.829 2.384,1.382 3.213,1.658c2.072,1.934 4.905,2.902 8.497,2.902c2.763,0 5.285,-0.553 7.565,-1.658c2.279,-1.106 3.557,-2.418 3.834,-3.938c0,-0.691 -0.691,-3.109 -2.073,-7.254c-3.454,-4.974 -6.114,-10.052 -7.979,-15.233c-1.865,-5.181 -2.798,-9.568 -2.798,-13.16c0,-2.625 0.76,-5.32 2.28,-8.083c1.52,-2.763 3.592,-5.112 6.217,-7.047c3.455,-3.592 7.634,-6.839 12.539,-9.74c4.905,-2.902 9.361,-4.905 13.368,-6.011c1.658,0 3.696,0.208 6.114,0.622c2.418,0.415 4.11,0.898 5.077,1.451c1.52,0.553 2.971,2.072 4.353,4.559c1.381,2.487 2.072,4.836 2.072,7.047c0,2.211 -1.174,5.25 -3.523,9.119c-0.277,0.967 -0.829,2.28 -1.658,3.938c-0.829,1.658 -1.244,2.694 -1.244,3.108c-0.552,1.382 -1.45,2.073 -2.694,2.073c-1.243,0 -2.452,-0.587 -3.627,-1.762c-1.174,-1.174 -2.107,-2.59 -2.798,-4.248c-0.414,-1.658 -0.621,-3.109 -0.621,-4.353c0,-1.658 0.552,-3.316 1.658,-4.974c1.519,-1.519 2.279,-2.556 2.279,-3.108c0,-0.553 -0.76,-0.829 -2.279,-0.829c-1.658,0 -4.836,1.312 -9.534,3.937c-4.698,2.626 -8.428,5.389 -11.192,8.29c-2.487,2.349 -4.006,4.111 -4.559,5.285c-0.553,1.175 -0.829,2.936 -0.829,5.285c0,2.073 0.449,4.525 1.347,7.358c0.898,2.832 1.831,4.732 2.798,5.699c0.276,0.553 0.864,1.727 1.762,3.523c0.898,1.796 1.968,3.524 3.212,5.182c2.763,6.217 4.145,11.053 4.145,14.507c0,4.007 -1.554,6.908 -4.663,8.705c-3.109,1.796 -7.979,2.694 -14.611,2.694Z"
		style="fill:var(--text);" />
	<path
		d="M1511.11,1919.12c-0.415,0.415 -1.52,0.622 -3.316,0.622c-3.04,0 -5.665,-0.553 -7.876,-1.658c-0.414,-0.276 -1.209,-0.967 -2.383,-2.072c-1.175,-1.106 -2.038,-2.073 -2.591,-2.902l-7.668,-8.083c-0.691,-1.381 -3.385,-4.421 -8.083,-9.119c-1.52,-1.934 -2.936,-3.488 -4.249,-4.663c-1.312,-1.174 -2.245,-1.761 -2.797,-1.761l-6.632,22.797c-1.106,1.934 -2.004,3.247 -2.695,3.938c-0.691,0.691 -1.52,1.036 -2.487,1.036c-1.658,0 -3.039,-0.725 -4.145,-2.176c-1.105,-1.451 -1.658,-3.42 -1.658,-5.907c-1.105,-4.007 2.556,-16.511 10.985,-37.512c0.414,-1.934 1.105,-4.18 2.072,-6.736c0.967,-2.556 1.658,-4.386 2.073,-5.492c2.21,-7.046 6.01,-16.856 11.398,-29.429l3.731,-8.498c2.349,-4.835 4.905,-9.879 7.668,-15.129c7.323,-13.54 11.952,-21.416 13.886,-23.626c1.105,-1.106 2.418,-1.658 3.938,-1.658c1.519,0 2.832,0.552 3.937,1.658c1.382,1.658 2.073,3.108 2.073,4.352c0,2.349 -1.727,6.286 -5.181,11.813c-1.52,3.178 -2.902,5.803 -4.145,7.876c-1.106,1.519 -2.418,3.73 -3.938,6.632c-0.967,2.763 -2.004,4.145 -3.109,4.145c-0.138,0.69 -0.38,1.589 -0.725,2.694c-0.346,1.105 -0.795,2.211 -1.347,3.316c-0.415,1.382 -1.106,3.04 -2.073,4.974c-0.967,1.934 -1.589,3.316 -1.865,4.145c-0.276,0.553 -0.656,1.382 -1.14,2.487c-0.484,1.105 -1.209,2.487 -2.176,4.145c-3.869,8.014 -6.01,12.988 -6.425,14.922c0,0.138 0.069,0.207 0.207,0.207c0.277,0 0.829,-0.276 1.658,-0.829c0.829,-0.552 1.52,-1.036 2.073,-1.451c3.316,-2.625 7.115,-5.181 11.399,-7.668c4.283,-2.487 7.599,-3.938 9.948,-4.352c1.796,-0.553 3.454,-0.829 4.974,-0.829c1.52,0 2.901,0.276 4.145,0.829c3.178,1.934 5.25,5.319 6.217,10.155c0,2.211 -1.071,5.769 -3.212,10.674c-2.142,4.905 -4.111,8.117 -5.907,9.637c-0.967,0.414 -1.692,0.794 -2.176,1.14c-0.484,0.345 -0.794,0.587 -0.933,0.725c0,0.553 -0.276,1.278 -0.829,2.176c-0.552,0.898 -1.312,1.554 -2.279,1.969c-1.935,1.934 -2.902,3.247 -2.902,3.938l0,1.036c-0.414,0 -1.278,0.484 -2.59,1.451c-1.313,0.967 -2.522,1.865 -3.627,2.694c-1.52,1.52 -2.729,2.418 -3.627,2.694c-0.898,0.277 -1.624,0.484 -2.176,0.622c-0.277,0.276 -0.864,0.587 -1.762,0.933c-0.898,0.345 -1.347,0.725 -1.347,1.14c0,0.967 2.245,3.972 6.736,9.015c4.49,5.043 7.564,8.117 9.222,9.223c1.382,0.69 2.418,1.761 3.109,3.212c0.691,1.451 1.036,2.867 1.036,4.249c0,0.69 -0.138,1.45 -0.414,2.279Zm-24.87,-36.683c2.348,-1.658 6.459,-4.939 12.331,-9.844c5.872,-4.905 9.499,-8.256 10.881,-10.052c0.829,-0.829 1.658,-2.176 2.487,-4.041c0.829,-1.866 1.243,-3.489 1.243,-4.871c0,-0.552 -0.138,-1.105 -0.414,-1.658c-0.277,-0.691 -4.214,0.898 -11.814,4.767c-4.283,2.487 -8.704,5.596 -13.264,9.326c-4.559,3.731 -7.806,7.185 -9.74,10.363c-0.415,1.381 0.069,2.798 1.45,4.248c1.382,1.451 2.971,2.177 4.767,2.177c0.967,0 1.658,-0.139 2.073,-0.415Z"
		style="fill:var(--text);" /><text x="1207.07px" y="1918.71px"
		style="font-family:'Caveat-Regular', 'Caveat';font-size:207.25px;fill:var(--text);">ta</text>
	<path
		d="M1074.11,1007.43c-10.212,0 -12.487,22.914 -9.391,30.888c7.807,20.109 44.786,17.609 58.944,9.654c6.192,-3.478 13.834,-7.011 17.161,-13.696c9.835,-19.759 -6.86,-50.546 -26.947,-57.242c-8.383,-2.794 -25.772,13.934 -31.08,19.152"
		style="fill:none;stroke:var(--text);stroke-width:12.5px;stroke-linecap:round;stroke-miterlimit:1.5;" />
	<path
		d="M1397.54,1085.1c-0.829,0.415 -1.588,0.622 -2.279,0.622c-1.935,0 -3.593,-1.002 -4.974,-3.005c-1.382,-2.004 -2.073,-4.387 -2.073,-7.151c0,-1.243 0.207,-2.625 0.622,-4.145c0.138,-0.552 0.518,-1.83 1.14,-3.834c0.622,-2.003 1.002,-3.696 1.14,-5.077c0.276,-1.52 1.105,-4.283 2.487,-8.29c1.381,-4.007 2.487,-6.701 3.316,-8.083c0.691,-1.244 1.243,-2.729 1.658,-4.456c0.414,-1.727 0.621,-3.212 0.621,-4.456c0.968,-3.04 1.866,-5.112 2.695,-6.217c0.967,-3.04 2.003,-5.389 3.108,-7.047c0.139,-0.414 0.311,-1.416 0.519,-3.005c0.207,-1.589 0.656,-2.522 1.347,-2.798c0.414,-1.934 0.76,-3.247 1.036,-3.938c0.967,-4.283 2.763,-9.671 5.388,-16.165c1.382,-3.593 2.073,-7.185 2.073,-10.777c0,-4.283 -1.036,-6.77 -3.109,-7.461c-1.52,-0.553 -2.28,-1.658 -2.28,-3.316c0,-0.967 0.277,-1.865 0.829,-2.694c0.553,-0.829 1.313,-1.451 2.28,-1.866c1.106,-0.414 2.211,-0.621 3.316,-0.621c1.52,0 2.936,0.207 4.249,0.621c1.312,0.415 1.9,0.76 1.761,1.037c0,0.414 0.07,0.725 0.208,0.932c0.138,0.207 0.414,0.311 0.829,0.311c0.414,-0.553 1.45,0.587 3.108,3.42c1.658,2.832 2.487,4.801 2.487,5.906c-0.276,0.415 -0.379,0.691 -0.31,0.829c0.069,0.138 0.31,0.208 0.725,0.208c0.967,-0.415 2.798,-1.348 5.492,-2.798c2.694,-1.451 4.387,-2.591 5.078,-3.42c0.276,-0.138 0.76,-0.38 1.451,-0.725c0.69,-0.346 1.243,-0.726 1.658,-1.14c1.519,-0.553 3.246,-0.829 5.181,-0.829c2.21,0 4.352,0.345 6.425,1.036c2.072,0.691 3.799,1.658 5.181,2.902c2.901,3.73 4.352,7.253 4.352,10.569c0,2.902 -0.967,6.701 -2.901,11.399c-0.277,0.829 -1.14,2.453 -2.591,4.87c-1.451,2.418 -2.453,4.042 -3.005,4.871c-2.902,4.559 -6.356,8.497 -10.363,11.813c-4.007,3.316 -8.635,6.425 -13.885,9.326c-1.52,0.968 -3.075,1.727 -4.664,2.28c-1.589,0.553 -2.936,0.829 -4.041,0.829c-0.553,0 -1.105,-0.138 -1.658,-0.414c-1.52,-1.106 -2.902,-3.455 -4.145,-7.047c-1.796,4.283 -2.832,7.185 -3.109,8.705c0,0.414 -0.103,1.07 -0.311,1.969c-0.207,0.898 -0.587,1.554 -1.14,1.968c0,0.139 -0.103,0.484 -0.31,1.037c-0.208,0.552 -0.657,1.312 -1.348,2.279c-2.072,5.803 -3.385,9.396 -3.937,10.777c-2.349,6.632 -3.731,10.985 -4.145,13.057c-0.277,3.454 -1.037,7.081 -2.28,10.881c-1.244,3.799 -2.211,5.907 -2.902,6.321Zm24.663,-59.066c1.244,-0.691 4.629,-3.144 10.156,-7.358c5.526,-4.214 8.98,-7.15 10.362,-8.808c2.625,-3.178 4.421,-6.148 5.389,-8.912c1.381,-3.454 2.348,-6.01 2.901,-7.668c0.415,-0.829 0.622,-1.796 0.622,-2.901c0,-1.52 -0.415,-2.695 -1.244,-3.524c-0.829,-0.138 -2.659,0.311 -5.492,1.347c-2.832,1.037 -5.872,2.557 -9.119,4.56c-3.247,2.003 -5.976,4.456 -8.186,7.357c-2.487,3.316 -4.456,6.909 -5.907,10.777c-1.451,3.869 -2.176,7.185 -2.176,9.948c0,3.455 0.898,5.182 2.694,5.182Z"
		style="fill:var(--text);" />
	<path
		d="M1496.81,1040.96c-2.072,0.414 -3.592,0.621 -4.559,0.621c-0.829,0 -1.52,-0.172 -2.073,-0.518c-0.552,-0.345 -1.312,-1.001 -2.279,-1.969c-3.04,-1.519 -5.423,-3.696 -7.151,-6.528c-1.727,-2.832 -2.452,-5.354 -2.176,-7.565c0.553,-6.355 2.384,-13.333 5.492,-20.932c3.109,-7.599 6.805,-14.3 11.088,-20.103c4.284,-5.803 8.429,-9.396 12.435,-10.777c2.487,-0.967 4.56,-1.451 6.218,-1.451c3.316,0 5.665,1.382 7.046,4.145c0.968,1.934 1.451,3.385 1.451,4.352c0,1.658 -0.967,2.764 -2.901,3.316c-0.415,0 -0.898,0.208 -1.451,0.622c-0.553,0.415 -0.829,0.829 -0.829,1.244c0.138,0.138 0.76,0.207 1.865,0.207c2.349,0 5.251,-0.346 8.705,-1.036c3.454,-0.691 5.665,-1.451 6.632,-2.28c0.829,-0.415 1.52,-0.622 2.072,-0.622l2.902,0.415c2.349,0.69 3.523,1.519 3.523,2.487c0,0.552 0.207,1.07 0.622,1.554c0.414,0.484 0.898,0.725 1.45,0.725c0.829,0.138 0.726,0.691 -0.31,1.658c-1.037,0.967 -3.006,2.556 -5.907,4.767c-0.691,0.415 -1.693,1.036 -3.005,1.865c-1.313,0.829 -2.073,1.52 -2.28,2.073c-0.207,0.553 -0.173,1.312 0.104,2.28c0.552,1.243 0.829,2.763 0.829,4.559c0,4.56 -1.969,9.603 -5.907,15.129c-3.938,5.527 -8.843,10.363 -14.715,14.508c-5.872,4.145 -11.502,6.563 -16.891,7.254Zm-3.523,-9.119c0.829,0 2.902,-0.829 6.218,-2.487c1.796,-1.797 3.247,-2.902 4.352,-3.316c0.967,0 2.28,-0.726 3.938,-2.176c1.658,-1.451 4.214,-4.387 7.668,-8.809c2.625,-3.039 4.594,-5.595 5.907,-7.668c1.312,-2.072 1.968,-4.076 1.968,-6.01c0,-0.829 -0.069,-1.451 -0.207,-1.865c-0.138,-0.415 -0.587,-0.795 -1.347,-1.14c-0.76,-0.346 -1.485,-0.657 -2.176,-0.933c-1.244,0 -2.383,-0.311 -3.42,-0.933c-1.036,-0.621 -2.521,-1.692 -4.456,-3.212l-3.316,-4.145l-3.523,3.523c-3.316,3.316 -6.701,8.739 -10.155,16.269c-3.454,7.531 -5.389,13.368 -5.803,17.513c-0.138,1.934 0.173,3.282 0.932,4.042c0.76,0.759 1.9,1.208 3.42,1.347Z"
		style="fill:var(--text);" />
	<path
		d="M1582.61,960.13c-2.625,0 -5.285,-1.416 -7.979,-4.249c-2.694,-2.832 -4.041,-5.768 -4.041,-8.808c0,-0.691 0.829,-2.28 2.487,-4.767c1.658,-2.487 2.487,-3.868 2.487,-4.145c0.967,0 1.796,0.07 2.487,0.208c0.69,0.138 1.519,0.414 2.487,0.829c1.243,2.763 3.177,5.595 5.803,8.497c0.829,1.105 1.588,2.142 2.279,3.109c0.691,0.967 1.037,1.796 1.037,2.487c0,2.349 -0.104,3.938 -0.311,4.767c-0.208,0.829 -0.76,1.381 -1.658,1.658c-0.898,0.276 -2.591,0.414 -5.078,0.414Zm-30.466,78.548c-0.414,0 -0.967,-0.138 -1.658,-0.415c-0.691,-0.276 -1.174,-0.483 -1.451,-0.621c0,-0.415 -0.172,-1.14 -0.518,-2.176c-0.345,-1.037 -0.518,-1.693 -0.518,-1.969c-1.105,-0.553 -1.658,-1.244 -1.658,-2.073c0,-0.691 0.207,-1.658 0.622,-2.901c1.796,-3.178 4.974,-10.397 9.534,-21.658c4.559,-11.261 7.115,-17.927 7.668,-20c0,-0.552 0.207,-1.243 0.622,-2.072c0.414,-0.829 0.898,-1.52 1.45,-2.073c0.553,-0.552 1.175,-0.829 1.866,-0.829c1.519,0 2.936,1.037 4.248,3.109c1.313,2.073 1.969,4.352 1.969,6.839c0,1.658 -1.554,6.391 -4.663,14.197c-3.109,7.806 -6.598,15.647 -10.466,23.523c-0.553,1.105 -1.347,2.694 -2.384,4.767c-1.036,2.072 -1.83,3.316 -2.383,3.73c-0.553,0.415 -1.313,0.622 -2.28,0.622Z"
		style="fill:var(--text);" />
	<path
		d="M1596.91,1039.71c-0.414,0 -1.14,-0.345 -2.176,-1.036c-1.036,-0.691 -1.9,-1.382 -2.59,-2.073c-0.968,-0.967 -1.555,-2.003 -1.762,-3.108c-0.207,-1.106 -0.311,-3.662 -0.311,-7.669c0,-4.283 0.864,-8.98 2.591,-14.093c1.727,-5.112 4.801,-12.504 9.222,-22.175l6.84,-14.508c0.414,-0.967 1.381,-2.349 2.901,-4.145l2.073,0c0.967,0 2.038,0.622 3.212,1.865c1.174,1.244 2.038,2.695 2.591,4.353c0,2.21 -0.311,4.283 -0.933,6.217c-0.622,1.934 -2.245,4.629 -4.87,8.083c-1.106,1.658 -2.418,4.283 -3.938,7.875c-1.52,3.593 -2.556,6.632 -3.109,9.119c-0.414,0.691 -0.933,1.866 -1.554,3.524c-0.622,1.658 -1.347,3.385 -2.176,5.181l-1.037,4.559l13.886,-14.3c6.079,-6.079 11.019,-10.501 14.819,-13.264c3.799,-2.763 6.942,-4.145 9.429,-4.145c2.902,0 5.251,1.865 7.047,5.596c1.243,2.072 2.072,3.696 2.487,4.87c0.414,1.175 0.622,3.005 0.622,5.492c0,0.829 -0.138,3.178 -0.415,7.047l0,12.849c1.935,-0.414 3.696,-0.967 5.285,-1.658c1.589,-0.69 2.798,-1.174 3.627,-1.45c3.178,-1.382 6.701,-2.211 10.57,-2.487c-0.277,2.348 -1.313,4.905 -3.109,7.668c-1.796,2.763 -4.007,5.078 -6.632,6.943c-2.625,1.865 -5.181,2.798 -7.668,2.798c-1.935,0 -3.973,-0.898 -6.114,-2.695c-2.142,-1.796 -3.696,-3.799 -4.663,-6.01c-0.553,-1.52 -0.864,-3.385 -0.933,-5.596c-0.069,-2.21 -0.104,-5.319 -0.104,-9.326l0,-7.668c0,-1.382 -0.414,-2.073 -1.243,-2.073c-0.553,0 -1.865,0.829 -3.938,2.487c-2.763,2.487 -7.254,6.978 -13.471,13.472c-5.941,6.217 -11.088,11.018 -15.44,14.404c-4.353,3.385 -7.358,5.077 -9.016,5.077Z"
		style="fill:var(--text);" />
	<path
		d="M1754.63,1041.16c-1.105,-1.382 -1.658,-2.763 -1.658,-4.145c0,-1.105 -0.346,-1.658 -1.036,-1.658c-0.829,-0.829 0.76,-5.561 4.766,-14.197c4.007,-8.635 7.461,-15.233 10.363,-19.792c0.553,-0.415 0.967,-1.002 1.243,-1.762c0.277,-0.76 0.277,-1.14 0,-1.14c0.277,-0.414 0.691,-1.105 1.244,-2.072c0.553,-0.967 1.105,-1.796 1.658,-2.487c2.349,-4.56 3.316,-8.221 2.901,-10.984c-0.552,-0.553 -1.139,-0.76 -1.761,-0.622c-0.622,0.138 -1.002,0.276 -1.14,0.414c-0.276,0.138 -1.002,0.38 -2.176,0.726c-1.175,0.345 -2.176,0.794 -3.005,1.347c-3.178,2.072 -5.182,3.109 -6.011,3.109c-0.829,0 -1.554,-0.415 -2.176,-1.244c-0.621,-0.829 -1.278,-2.211 -1.969,-4.145c-0.414,-1.243 -0.621,-2.142 -0.621,-2.694c0,-0.967 0.552,-1.935 1.658,-2.902c0.829,-0.829 1.83,-1.485 3.005,-1.969c1.174,-0.483 1.969,-0.863 2.383,-1.139c2.902,-1.658 4.974,-2.626 6.218,-2.902c2.487,-0.691 4.49,-1.036 6.01,-1.036c4.145,0 7.046,1.934 8.704,5.803c1.935,2.349 2.902,5.043 2.902,8.083c0,2.625 -0.967,6.01 -2.902,10.155l-2.072,3.109c-0.415,0.829 -0.622,1.381 -0.622,1.658c0,0.276 0.069,0.414 0.207,0.414c0.553,0 1.175,-0.483 1.866,-1.451c0.691,-0.691 1.589,-1.554 2.694,-2.59c1.105,-1.037 1.865,-1.555 2.28,-1.555c0.138,0 0.345,-0.103 0.621,-0.311c0.277,-0.207 0.415,-0.725 0.415,-1.554l2.072,-1.865c0.553,0 2.211,-1.175 4.974,-3.523l3.938,-3.109c1.52,-1.106 2.902,-1.658 4.145,-1.658c0.415,-0.138 1.037,-0.207 1.866,-0.207c2.625,0 4.766,1.416 6.424,4.248c1.658,2.833 2.487,6.459 2.487,10.881l-4.352,11.191l7.461,-9.119c1.244,-1.52 2.902,-3.178 4.974,-4.974c0.276,-0.829 0.656,-1.347 1.14,-1.554c0.484,-0.207 0.794,-0.311 0.933,-0.311c0.138,0 0.31,-0.069 0.518,-0.207c0.207,-0.138 0.311,-0.346 0.311,-0.622c0.552,-0.414 1.278,-0.933 2.176,-1.554c0.898,-0.622 1.485,-1.14 1.761,-1.555c1.244,-0.552 2.625,-0.829 4.145,-0.829c2.902,0 5.32,1.866 7.254,5.596c0.829,1.52 1.347,2.867 1.554,4.041c0.208,1.175 0.311,3.144 0.311,5.907c-0.552,3.04 -1.036,6.218 -1.45,9.534c0,0.552 -0.139,1.934 -0.415,4.145c-0.691,1.519 -1.036,3.868 -1.036,7.046c0,1.934 0.103,3.178 0.311,3.731c0.207,0.552 0.725,0.829 1.554,0.829c2.073,-0.415 4.801,-1.417 8.186,-3.005c3.386,-1.589 5.838,-3.144 7.358,-4.664c2.072,-2.072 3.938,-3.108 5.596,-3.108c1.519,0 2.487,0.829 2.901,2.487c0.415,0.829 -0.656,3.039 -3.212,6.632c-2.556,3.592 -4.318,5.388 -5.285,5.388c-0.276,0 -0.795,0.415 -1.555,1.244c-0.759,0.829 -1.347,1.381 -1.761,1.658c-2.349,2.625 -4.283,3.937 -5.803,3.937c-0.553,0 -1.278,0.173 -2.176,0.519c-0.898,0.345 -1.693,0.518 -2.384,0.518c-0.276,0.138 -0.967,0.207 -2.072,0.207c-2.073,0 -4.076,-0.553 -6.01,-1.658c-1.935,-1.105 -3.178,-2.763 -3.731,-4.974c-1.105,-2.763 -1.658,-6.632 -1.658,-11.606c0,-1.244 0.138,-3.247 0.415,-6.01l1.036,-6.425c0.276,-2.625 0.552,-4.214 0.829,-4.767l0,-1.865c0,-2.349 -0.207,-3.523 -0.622,-3.523c-1.105,0 -4.767,3.557 -10.984,10.673c-6.218,7.116 -10.984,13.229 -14.3,18.342c-0.968,1.243 -2.038,3.074 -3.213,5.492c-1.174,2.418 -1.9,3.696 -2.176,3.834c-0.553,0.553 -1.174,0.829 -1.865,0.829c-0.829,0 -1.727,-0.415 -2.695,-1.244c-0.967,-0.829 -1.796,-1.865 -2.487,-3.108c-0.552,-1.382 -0.829,-2.418 -0.829,-3.109c0,-0.967 0.415,-2.867 1.244,-5.699c0.829,-2.833 2.003,-6.598 3.523,-11.296c1.52,-4.559 2.798,-8.497 3.834,-11.813c1.037,-3.316 1.693,-5.527 1.969,-6.632c0,-0.967 -3.454,1.52 -10.362,7.461c-1.382,1.658 -2.971,3.385 -4.767,5.181c-3.178,3.316 -6.736,7.185 -10.673,11.606c-3.938,4.422 -7.358,8.636 -10.259,12.643c-3.04,4.145 -5.285,7.046 -6.736,8.704c-1.451,1.658 -2.66,2.487 -3.627,2.487c-0.691,0 -1.589,-0.622 -2.694,-1.865Z"
		style="fill:var(--text);" />
	<path
		d="M1952.97,1039.71c-0.415,0 -1.14,-0.345 -2.177,-1.036c-1.036,-0.691 -1.899,-1.382 -2.59,-2.073c-0.967,-0.967 -1.555,-2.003 -1.762,-3.108c-0.207,-1.106 -0.311,-3.662 -0.311,-7.669c0,-4.283 0.864,-8.98 2.591,-14.093c1.727,-5.112 4.801,-12.504 9.223,-22.175l6.839,-14.508c0.414,-0.967 1.381,-2.349 2.901,-4.145l2.073,0c0.967,0 2.038,0.622 3.212,1.865c1.175,1.244 2.038,2.695 2.591,4.353c0,2.21 -0.311,4.283 -0.933,6.217c-0.622,1.934 -2.245,4.629 -4.87,8.083c-1.106,1.658 -2.418,4.283 -3.938,7.875c-1.52,3.593 -2.556,6.632 -3.109,9.119c-0.414,0.691 -0.932,1.866 -1.554,3.524c-0.622,1.658 -1.347,3.385 -2.176,5.181l-1.036,4.559l13.885,-14.3c6.08,-6.079 11.019,-10.501 14.819,-13.264c3.799,-2.763 6.943,-4.145 9.43,-4.145c2.901,0 5.25,1.865 7.046,5.596c1.244,2.072 2.073,3.696 2.487,4.87c0.415,1.175 0.622,3.005 0.622,5.492c0,0.829 -0.138,3.178 -0.415,7.047l0,12.849c1.935,-0.414 3.696,-0.967 5.285,-1.658c1.589,-0.69 2.798,-1.174 3.627,-1.45c3.178,-1.382 6.701,-2.211 10.57,-2.487c-0.276,2.348 -1.313,4.905 -3.109,7.668c-1.796,2.763 -4.007,5.078 -6.632,6.943c-2.625,1.865 -5.181,2.798 -7.668,2.798c-1.934,0 -3.972,-0.898 -6.114,-2.695c-2.142,-1.796 -3.696,-3.799 -4.663,-6.01c-0.553,-1.52 -0.864,-3.385 -0.933,-5.596c-0.069,-2.21 -0.103,-5.319 -0.103,-9.326l0,-7.668c0,-1.382 -0.415,-2.073 -1.244,-2.073c-0.553,0 -1.865,0.829 -3.938,2.487c-2.763,2.487 -7.253,6.978 -13.471,13.472c-5.941,6.217 -11.088,11.018 -15.44,14.404c-4.352,3.385 -7.357,5.077 -9.015,5.077Z"
		style="fill:var(--text);" /><text x="1207.07px" y="1048.83px"
		style="font-family:'Caveat-Regular', 'Caveat';font-size:207.25px;fill:var(--text);">ap<tspan
			x="1659.5px 1854.94px 2015.56px " y="1048.83px 1048.83px 1048.83px ">tet</tspan></text>
	<g transform="matrix(0.99334,0.11522,-0.11522,0.99334,26.4516,-105.467)">
		<path
			d="M2669.55,1313.75c-0.829,0.415 -1.589,0.622 -2.28,0.622c-1.934,0 -3.592,-1.002 -4.974,-3.005c-1.382,-2.004 -2.072,-4.387 -2.072,-7.15c0,-1.244 0.207,-2.626 0.621,-4.145c0.139,-0.553 0.518,-1.831 1.14,-3.835c0.622,-2.003 1.002,-3.696 1.14,-5.077c0.276,-1.52 1.105,-4.283 2.487,-8.29c1.382,-4.007 2.487,-6.701 3.316,-8.083c0.691,-1.244 1.244,-2.729 1.658,-4.456c0.415,-1.727 0.622,-3.212 0.622,-4.456c0.967,-3.039 1.865,-5.112 2.694,-6.217c0.967,-3.04 2.004,-5.389 3.109,-7.047c0.138,-0.414 0.311,-1.416 0.518,-3.005c0.207,-1.589 0.656,-2.521 1.347,-2.798c0.415,-1.934 0.76,-3.247 1.036,-3.938c0.968,-4.283 2.764,-9.671 5.389,-16.165c1.382,-3.592 2.072,-7.185 2.072,-10.777c0,-4.283 -1.036,-6.77 -3.108,-7.461c-1.52,-0.553 -2.28,-1.658 -2.28,-3.316c0,-0.967 0.276,-1.865 0.829,-2.694c0.553,-0.829 1.312,-1.451 2.28,-1.866c1.105,-0.414 2.21,-0.621 3.316,-0.621c1.52,0 2.936,0.207 4.248,0.621c1.313,0.415 1.9,0.76 1.762,1.037c0,0.414 0.069,0.725 0.207,0.932c0.138,0.207 0.415,0.311 0.829,0.311c0.415,-0.553 1.451,0.587 3.109,3.42c1.658,2.832 2.487,4.801 2.487,5.906c-0.276,0.415 -0.38,0.691 -0.311,0.829c0.069,0.139 0.311,0.208 0.725,0.208c0.968,-0.415 2.798,-1.348 5.493,-2.798c2.694,-1.451 4.386,-2.591 5.077,-3.42c0.277,-0.138 0.76,-0.38 1.451,-0.725c0.691,-0.346 1.243,-0.726 1.658,-1.14c1.52,-0.553 3.247,-0.829 5.181,-0.829c2.211,0 4.352,0.345 6.425,1.036c2.072,0.691 3.8,1.658 5.181,2.902c2.902,3.73 4.353,7.253 4.353,10.569c0,2.902 -0.968,6.701 -2.902,11.399c-0.276,0.829 -1.14,2.453 -2.591,4.871c-1.45,2.417 -2.452,4.041 -3.005,4.87c-2.901,4.559 -6.355,8.497 -10.362,11.813c-4.007,3.316 -8.636,6.425 -13.886,9.326c-1.52,0.968 -3.074,1.728 -4.663,2.28c-1.589,0.553 -2.936,0.829 -4.042,0.829c-0.552,0 -1.105,-0.138 -1.658,-0.414c-1.519,-1.106 -2.901,-3.454 -4.145,-7.047c-1.796,4.283 -2.832,7.185 -3.108,8.705c0,0.414 -0.104,1.071 -0.311,1.969c-0.207,0.898 -0.587,1.554 -1.14,1.968c0,0.139 -0.104,0.484 -0.311,1.037c-0.207,0.552 -0.656,1.312 -1.347,2.279c-2.073,5.804 -3.385,9.396 -3.938,10.778c-2.349,6.632 -3.73,10.984 -4.145,13.056c-0.276,3.454 -1.036,7.081 -2.28,10.881c-1.243,3.8 -2.21,5.907 -2.901,6.321Zm24.663,-59.066c1.243,-0.691 4.628,-3.144 10.155,-7.358c5.527,-4.214 8.981,-7.15 10.362,-8.808c2.626,-3.178 4.422,-6.148 5.389,-8.912c1.382,-3.454 2.349,-6.01 2.901,-7.668c0.415,-0.829 0.622,-1.796 0.622,-2.901c0,-1.52 -0.414,-2.695 -1.243,-3.524c-0.829,-0.138 -2.66,0.311 -5.492,1.348c-2.833,1.036 -5.872,2.556 -9.119,4.559c-3.247,2.003 -5.976,4.456 -8.187,7.357c-2.487,3.316 -4.456,6.909 -5.906,10.777c-1.451,3.869 -2.177,7.185 -2.177,9.948c0,3.455 0.899,5.182 2.695,5.182Z"
			style="fill:var(--text);" />
		<path
			d="M2768.82,1269.6c-2.073,0.414 -3.593,0.621 -4.56,0.621c-0.829,0 -1.52,-0.172 -2.072,-0.518c-0.553,-0.345 -1.313,-1.001 -2.28,-1.969c-3.04,-1.519 -5.423,-3.695 -7.15,-6.528c-1.727,-2.832 -2.453,-5.354 -2.176,-7.565c0.552,-6.355 2.383,-13.333 5.492,-20.932c3.109,-7.599 6.805,-14.3 11.088,-20.103c4.283,-5.803 8.428,-9.395 12.435,-10.777c2.487,-0.967 4.559,-1.451 6.217,-1.451c3.316,0 5.665,1.382 7.047,4.145c0.967,1.934 1.451,3.385 1.451,4.352c0,1.658 -0.968,2.764 -2.902,3.316c-0.414,0 -0.898,0.208 -1.451,0.622c-0.552,0.415 -0.829,0.829 -0.829,1.244c0.139,0.138 0.76,0.207 1.866,0.207c2.348,0 5.25,-0.346 8.704,-1.036c3.454,-0.691 5.665,-1.451 6.632,-2.28c0.829,-0.415 1.52,-0.622 2.073,-0.622l2.901,0.415c2.349,0.69 3.523,1.519 3.523,2.487c0,0.552 0.208,1.07 0.622,1.554c0.415,0.484 0.898,0.725 1.451,0.725c0.829,0.139 0.725,0.691 -0.311,1.658c-1.036,0.968 -3.005,2.556 -5.907,4.767c-0.69,0.415 -1.692,1.036 -3.005,1.865c-1.312,0.829 -2.072,1.52 -2.279,2.073c-0.208,0.553 -0.173,1.312 0.103,2.28c0.553,1.243 0.829,2.763 0.829,4.559c0,4.56 -1.969,9.603 -5.906,15.129c-3.938,5.527 -8.843,10.363 -14.715,14.508c-5.872,4.145 -11.503,6.563 -16.891,7.254Zm-3.523,-9.119c0.829,0 2.901,-0.829 6.217,-2.487c1.796,-1.796 3.247,-2.902 4.352,-3.316c0.968,0 2.28,-0.726 3.938,-2.176c1.658,-1.451 4.214,-4.387 7.668,-8.809c2.626,-3.039 4.594,-5.595 5.907,-7.668c1.313,-2.072 1.969,-4.076 1.969,-6.01c0,-0.829 -0.069,-1.451 -0.207,-1.865c-0.139,-0.415 -0.588,-0.795 -1.347,-1.14c-0.76,-0.346 -1.486,-0.657 -2.177,-0.933c-1.243,0 -2.383,-0.311 -3.419,-0.932c-1.037,-0.622 -2.522,-1.693 -4.456,-3.213l-3.316,-4.145l-3.523,3.523c-3.316,3.316 -6.702,8.739 -10.156,16.27c-3.454,7.53 -5.388,13.367 -5.803,17.512c-0.138,1.935 0.173,3.282 0.933,4.042c0.76,0.76 1.9,1.209 3.42,1.347Z"
			style="fill:var(--text);" />
		<path
			d="M2854.62,1188.77c-2.626,0 -5.285,-1.416 -7.98,-4.249c-2.694,-2.832 -4.041,-5.768 -4.041,-8.808c0,-0.691 0.829,-2.279 2.487,-4.766c1.658,-2.487 2.487,-3.869 2.487,-4.145c0.967,0 1.796,0.069 2.487,0.207c0.691,0.138 1.52,0.414 2.487,0.829c1.244,2.763 3.178,5.596 5.803,8.497c0.829,1.105 1.589,2.142 2.28,3.109c0.691,0.967 1.036,1.796 1.036,2.487c0,2.349 -0.104,3.938 -0.311,4.767c-0.207,0.829 -0.76,1.381 -1.658,1.658c-0.898,0.276 -2.59,0.414 -5.077,0.414Zm-30.466,78.548c-0.415,0 -0.967,-0.138 -1.658,-0.415c-0.691,-0.276 -1.175,-0.483 -1.451,-0.621c0,-0.415 -0.173,-1.14 -0.518,-2.176c-0.346,-1.037 -0.518,-1.693 -0.518,-1.969c-1.106,-0.553 -1.658,-1.244 -1.658,-2.073c0,-0.691 0.207,-1.658 0.621,-2.901c1.797,-3.178 4.974,-10.397 9.534,-21.658c4.559,-11.261 7.116,-17.927 7.668,-20c0,-0.552 0.207,-1.243 0.622,-2.072c0.414,-0.829 0.898,-1.52 1.451,-2.073c0.552,-0.552 1.174,-0.829 1.865,-0.829c1.52,0 2.936,1.037 4.249,3.109c1.312,2.073 1.968,4.352 1.968,6.839c0,1.658 -1.554,6.391 -4.663,14.197c-3.108,7.806 -6.597,15.647 -10.466,23.523c-0.552,1.105 -1.347,2.694 -2.383,4.767c-1.036,2.072 -1.831,3.316 -2.384,3.73c-0.552,0.415 -1.312,0.622 -2.279,0.622Z"
			style="fill:var(--text);" />
		<path
			d="M2868.93,1268.36c-0.415,0 -1.14,-0.345 -2.176,-1.036c-1.037,-0.691 -1.9,-1.382 -2.591,-2.073c-0.967,-0.967 -1.554,-2.003 -1.762,-3.108c-0.207,-1.106 -0.31,-3.662 -0.31,-7.669c0,-4.283 0.863,-8.98 2.59,-14.093c1.727,-5.112 4.801,-12.504 9.223,-22.175l6.839,-14.508c0.415,-0.967 1.382,-2.349 2.902,-4.145l2.072,0c0.967,0 2.038,0.622 3.212,1.865c1.175,1.244 2.038,2.695 2.591,4.353c0,2.21 -0.311,4.283 -0.933,6.217c-0.621,1.934 -2.245,4.629 -4.87,8.083c-1.105,1.658 -2.418,4.283 -3.938,7.875c-1.52,3.593 -2.556,6.632 -3.108,9.119c-0.415,0.691 -0.933,1.866 -1.555,3.524c-0.622,1.658 -1.347,3.385 -2.176,5.181l-1.036,4.559l13.886,-14.3c6.079,-6.079 11.018,-10.501 14.818,-13.264c3.8,-2.763 6.943,-4.145 9.43,-4.145c2.901,0 5.25,1.865 7.046,5.596c1.244,2.072 2.073,3.696 2.487,4.87c0.415,1.175 0.622,3.005 0.622,5.492c0,0.829 -0.138,3.178 -0.414,7.047l0,12.849c1.934,-0.414 3.696,-0.967 5.285,-1.658c1.588,-0.69 2.797,-1.174 3.626,-1.45c3.178,-1.382 6.702,-2.211 10.57,-2.487c-0.276,2.349 -1.312,4.905 -3.109,7.668c-1.796,2.763 -4.006,5.078 -6.632,6.943c-2.625,1.865 -5.181,2.798 -7.668,2.798c-1.934,0 -3.972,-0.898 -6.114,-2.695c-2.141,-1.796 -3.696,-3.799 -4.663,-6.01c-0.553,-1.52 -0.863,-3.385 -0.933,-5.596c-0.069,-2.21 -0.103,-5.319 -0.103,-9.326l0,-7.668c0,-1.382 -0.415,-2.073 -1.244,-2.073c-0.552,0 -1.865,0.829 -3.937,2.487c-2.764,2.487 -7.254,6.978 -13.472,13.472c-5.941,6.217 -11.088,11.019 -15.44,14.404c-4.352,3.385 -7.357,5.077 -9.015,5.077Z"
			style="fill:var(--text);" />
		<path
			d="M3026.64,1269.81c-1.105,-1.382 -1.658,-2.763 -1.658,-4.145c0,-1.105 -0.345,-1.658 -1.036,-1.658c-0.829,-0.829 0.76,-5.561 4.767,-14.197c4.007,-8.635 7.461,-15.233 10.362,-19.792c0.553,-0.415 0.968,-1.002 1.244,-1.762c0.276,-0.76 0.276,-1.14 0,-1.14c0.276,-0.414 0.691,-1.105 1.243,-2.072c0.553,-0.967 1.106,-1.796 1.658,-2.487c2.349,-4.56 3.316,-8.221 2.902,-10.984c-0.553,-0.553 -1.14,-0.76 -1.762,-0.622c-0.621,0.138 -1.001,0.276 -1.14,0.414c-0.276,0.139 -1.001,0.38 -2.176,0.726c-1.174,0.345 -2.176,0.794 -3.005,1.347c-3.178,2.072 -5.181,3.109 -6.01,3.109c-0.829,0 -1.555,-0.415 -2.176,-1.244c-0.622,-0.829 -1.278,-2.211 -1.969,-4.145c-0.415,-1.243 -0.622,-2.141 -0.622,-2.694c0,-0.967 0.553,-1.934 1.658,-2.902c0.829,-0.829 1.831,-1.485 3.005,-1.969c1.175,-0.483 1.969,-0.863 2.384,-1.139c2.901,-1.658 4.974,-2.626 6.217,-2.902c2.487,-0.691 4.491,-1.036 6.01,-1.036c4.145,0 7.047,1.934 8.705,5.803c1.934,2.349 2.901,5.043 2.901,8.083c0,2.625 -0.967,6.01 -2.901,10.155l-2.073,3.109c-0.414,0.829 -0.621,1.381 -0.621,1.658c0,0.276 0.069,0.414 0.207,0.414c0.553,0 1.174,-0.483 1.865,-1.451c0.691,-0.69 1.589,-1.554 2.694,-2.59c1.106,-1.036 1.866,-1.555 2.28,-1.555c0.138,0 0.346,-0.103 0.622,-0.31c0.276,-0.208 0.414,-0.726 0.414,-1.555l2.073,-1.865c0.553,0 2.211,-1.175 4.974,-3.523l3.938,-3.109c1.52,-1.105 2.901,-1.658 4.145,-1.658c0.414,-0.138 1.036,-0.207 1.865,-0.207c2.625,0 4.767,1.416 6.425,4.248c1.658,2.833 2.487,6.46 2.487,10.881l-4.353,11.191l7.461,-9.119c1.244,-1.519 2.902,-3.177 4.974,-4.974c0.277,-0.829 0.657,-1.347 1.14,-1.554c0.484,-0.207 0.795,-0.311 0.933,-0.311c0.138,0 0.311,-0.069 0.518,-0.207c0.207,-0.138 0.311,-0.346 0.311,-0.622c0.553,-0.414 1.278,-0.932 2.176,-1.554c0.898,-0.622 1.485,-1.14 1.762,-1.555c1.243,-0.552 2.625,-0.829 4.145,-0.829c2.901,0 5.319,1.866 7.254,5.596c0.829,1.52 1.347,2.867 1.554,4.042c0.207,1.174 0.311,3.143 0.311,5.906c-0.553,3.04 -1.036,6.218 -1.451,9.534c0,0.552 -0.138,1.934 -0.414,4.145c-0.691,1.52 -1.037,3.868 -1.037,7.046c0,1.935 0.104,3.178 0.311,3.731c0.207,0.552 0.726,0.829 1.555,0.829c2.072,-0.415 4.801,-1.417 8.186,-3.005c3.385,-1.589 5.837,-3.144 7.357,-4.664c2.073,-2.072 3.938,-3.108 5.596,-3.108c1.52,0 2.487,0.829 2.902,2.487c0.414,0.829 -0.657,3.039 -3.213,6.632c-2.556,3.592 -4.318,5.388 -5.285,5.388c-0.276,0 -0.794,0.415 -1.554,1.244c-0.76,0.829 -1.347,1.381 -1.762,1.658c-2.349,2.625 -4.283,3.937 -5.803,3.937c-0.552,0 -1.278,0.173 -2.176,0.519c-0.898,0.345 -1.692,0.518 -2.383,0.518c-0.277,0.138 -0.967,0.207 -2.073,0.207c-2.072,0 -4.076,-0.553 -6.01,-1.658c-1.934,-1.105 -3.178,-2.763 -3.73,-4.974c-1.106,-2.763 -1.659,-6.632 -1.659,-11.606c0,-1.244 0.139,-3.247 0.415,-6.01l1.036,-6.425c0.277,-2.625 0.553,-4.214 0.829,-4.767l0,-1.865c0,-2.349 -0.207,-3.523 -0.621,-3.523c-1.106,0 -4.767,3.557 -10.985,10.673c-6.217,7.116 -10.984,13.23 -14.3,18.342c-0.967,1.243 -2.038,3.074 -3.212,5.492c-1.175,2.418 -1.9,3.696 -2.177,3.834c-0.552,0.553 -1.174,0.829 -1.865,0.829c-0.829,0 -1.727,-0.415 -2.694,-1.244c-0.967,-0.829 -1.796,-1.865 -2.487,-3.108c-0.553,-1.382 -0.829,-2.418 -0.829,-3.109c0,-0.967 0.414,-2.867 1.243,-5.699c0.829,-2.833 2.004,-6.598 3.524,-11.296c1.52,-4.559 2.798,-8.497 3.834,-11.813c1.036,-3.316 1.692,-5.527 1.969,-6.632c0,-0.967 -3.454,1.52 -10.363,7.461c-1.381,1.658 -2.97,3.385 -4.767,5.181c-3.177,3.316 -6.735,7.185 -10.673,11.606c-3.938,4.422 -7.357,8.636 -10.259,12.643c-3.04,4.145 -5.285,7.046 -6.736,8.704c-1.45,1.658 -2.659,2.487 -3.626,2.487c-0.691,0 -1.589,-0.622 -2.695,-1.865Z"
			style="fill:var(--text);" />
		<path
			d="M3224.98,1268.36c-0.415,0 -1.14,-0.345 -2.176,-1.036c-1.036,-0.691 -1.9,-1.382 -2.591,-2.073c-0.967,-0.967 -1.554,-2.003 -1.761,-3.108c-0.208,-1.106 -0.311,-3.662 -0.311,-7.669c0,-4.283 0.863,-8.98 2.59,-14.093c1.727,-5.112 4.802,-12.504 9.223,-22.175l6.839,-14.508c0.415,-0.967 1.382,-2.349 2.902,-4.145l2.072,0c0.967,0 2.038,0.622 3.213,1.865c1.174,1.244 2.038,2.695 2.59,4.353c0,2.21 -0.311,4.283 -0.932,6.217c-0.622,1.934 -2.246,4.629 -4.871,8.083c-1.105,1.658 -2.418,4.283 -3.937,7.875c-1.52,3.593 -2.557,6.632 -3.109,9.119c-0.415,0.691 -0.933,1.866 -1.555,3.524c-0.621,1.658 -1.347,3.385 -2.176,5.181l-1.036,4.559l13.886,-14.3c6.079,-6.079 11.019,-10.501 14.818,-13.264c3.8,-2.763 6.943,-4.145 9.43,-4.145c2.902,0 5.25,1.865 7.047,5.596c1.243,2.072 2.072,3.696 2.487,4.87c0.414,1.175 0.621,3.005 0.621,5.492c0,0.829 -0.138,3.178 -0.414,7.047l0,12.849c1.934,-0.414 3.696,-0.967 5.285,-1.658c1.589,-0.69 2.798,-1.174 3.627,-1.45c3.177,-1.382 6.701,-2.211 10.569,-2.487c-0.276,2.349 -1.312,4.905 -3.108,7.668c-1.797,2.763 -4.007,5.078 -6.632,6.943c-2.626,1.865 -5.182,2.798 -7.669,2.798c-1.934,0 -3.972,-0.898 -6.114,-2.695c-2.141,-1.796 -3.695,-3.799 -4.663,-6.01c-0.552,-1.52 -0.863,-3.385 -0.932,-5.596c-0.069,-2.21 -0.104,-5.319 -0.104,-9.326l0,-7.668c0,-1.382 -0.414,-2.073 -1.243,-2.073c-0.553,0 -1.866,0.829 -3.938,2.487c-2.764,2.487 -7.254,6.978 -13.471,13.472c-5.942,6.217 -11.088,11.019 -15.441,14.404c-4.352,3.385 -7.357,5.077 -9.015,5.077Z"
			style="fill:var(--text);" /><text x="2479.09px" y="1277.48px"
			style="font-family:'Caveat-Regular', 'Caveat';font-size:207.25px;fill:var(--text);">ap<tspan
				x="2931.51px 3126.95px 3287.57px " y="1277.48px 1277.48px 1277.48px ">tet</tspan></text></g>
</svg>